<svg width="7" height="2" viewBox="0 0 7 2" fill="none" xmlns="http://www.w3.org/2000/svg">
<path d="M0.852 0.992C0.828 0.92 0.808 0.852 0.792 0.788C0.776 0.732 0.76 0.684 0.744 0.644C0.736 0.604 0.724 0.584 0.708 0.584L0.684 0.464L0.672 0.452C0.672 0.428 0.692 0.408 0.732 0.392C0.78 0.376 0.808 0.368 0.816 0.368L1.152 0.356C1.208 0.356 1.284 0.352 1.38 0.344C1.476 0.344 1.572 0.344 1.668 0.344C1.772 0.344 1.872 0.34 1.968 0.332C2.064 0.332 2.14 0.324 2.196 0.308H4.464C4.568 0.308 4.696 0.308 4.848 0.308C5 0.316 5.156 0.324 5.316 0.332C5.476 0.348 5.628 0.372 5.772 0.404C5.924 0.436 6.048 0.48 6.144 0.536C6.168 0.56 6.188 0.572 6.204 0.572V0.992C6.14 1.032 6.076 1.08 6.012 1.136C5.956 1.2 5.908 1.236 5.868 1.244C5.86 1.244 5.848 1.236 5.832 1.22L5.784 1.196C5.792 1.196 5.772 1.204 5.724 1.22L5.688 1.244C5.632 1.244 5.56 1.236 5.472 1.22C5.384 1.212 5.292 1.196 5.196 1.172C5.1 1.156 5.008 1.14 4.92 1.124C4.84 1.116 4.78 1.112 4.74 1.112C4.684 1.112 4.632 1.116 4.584 1.124C4.544 1.132 4.496 1.136 4.44 1.136V1.1H3.852C3.788 1.1 3.724 1.108 3.66 1.124C3.604 1.148 3.544 1.16 3.48 1.16C3.448 1.16 3.412 1.156 3.372 1.148C3.34 1.14 3.304 1.136 3.264 1.136C3.2 1.136 3.148 1.148 3.108 1.172C3.076 1.196 3.024 1.208 2.952 1.208C2.88 1.208 2.792 1.2 2.688 1.184C2.592 1.176 2.512 1.172 2.448 1.172C2.36 1.172 2.276 1.192 2.196 1.232C2.124 1.28 2.044 1.304 1.956 1.304C1.876 1.304 1.752 1.296 1.584 1.28C1.416 1.264 1.288 1.256 1.2 1.256C1.184 1.256 1.172 1.256 1.164 1.256C1.164 1.264 1.16 1.268 1.152 1.268H1.14C1.076 1.22 1.02 1.172 0.972 1.124C0.932 1.076 0.892 1.032 0.852 0.992Z" fill="#2F390F"/>
</svg>
