<svg width="607" height="69" viewBox="0 0 607 69" fill="none" xmlns="http://www.w3.org/2000/svg">
<path d="M7.408 45.672L5.488 45.48C4.4 45.352 3.376 44.968 2.416 44.328C1.456 43.624 0.944 42.76 0.88 41.736C0.88 41.544 0.912 41.416 0.976 41.352L1.456 41.256L1.648 40.392C1.52 40.392 1.392 40.328 1.264 40.2L1.36 39.816L1.552 39.624L1.36 38.856C1.36 38.792 1.392 38.76 1.456 38.76C1.52 38.824 1.584 38.856 1.648 38.856L2.416 37.896L2.608 37.992C2.48 37.992 2.384 38.12 2.32 38.376C2.32 38.632 2.32 38.92 2.32 39.24V39.624C2.32 39.688 2.352 39.752 2.416 39.816H2.608C2.672 39.752 2.704 39.624 2.704 39.432V38.76C2.704 38.632 2.736 38.376 2.8 37.992C2.928 37.544 2.992 37.256 2.992 37.128V34.152C2.992 34.024 3.024 33.48 3.088 32.52C3.216 31.56 3.344 30.536 3.472 29.448C3.6 28.36 3.696 27.368 3.76 26.472C3.888 25.512 3.952 24.968 3.952 24.84L4.528 23.88L3.952 22.536C3.952 22.216 4.016 21.672 4.144 20.904C4.272 20.072 4.336 19.528 4.336 19.272L4.624 17.928L5.296 16.968L4.72 16.584V14.76L5.2 13.224L4.912 13.128L5.968 5.832C5.968 5.768 5.936 5.736 5.872 5.736C5.872 5.672 5.872 5.608 5.872 5.544C5.872 5.032 5.968 4.456 6.16 3.816C6.352 3.112 6.448 2.664 6.448 2.472L8.176 2.376L9.904 1.8H11.056C11.312 1.8 11.76 1.992 12.4 2.376C13.04 2.76 13.52 3.112 13.84 3.432L14.992 4.488C15.056 4.616 15.152 4.84 15.28 5.16C15.408 5.48 15.504 5.64 15.568 5.64L15.664 6.12C15.6 6.248 15.504 6.664 15.376 7.368C15.312 8.008 15.152 8.712 14.896 9.48C14.96 9.608 14.992 9.768 14.992 9.96C14.992 10.152 14.928 10.344 14.8 10.536C14.736 10.664 14.64 10.792 14.512 10.92V11.016L14.416 11.112C14.416 11.176 14.448 11.208 14.512 11.208H14.896C14.896 11.464 14.736 11.752 14.416 12.072C14.544 12.2 14.608 12.296 14.608 12.36C14.608 12.488 14.48 12.712 14.224 13.032C14.032 13.288 13.936 13.672 13.936 14.184L14.032 14.472C13.968 14.6 13.904 14.664 13.84 14.664C13.776 14.664 13.744 14.696 13.744 14.76C13.744 14.888 13.84 15.048 14.032 15.24C13.968 15.56 13.84 15.72 13.648 15.72C13.456 15.72 13.36 16.008 13.36 16.584C13.36 16.712 13.552 16.808 13.936 16.872C13.488 17.128 13.264 17.256 13.264 17.256C13.264 17.32 13.296 17.352 13.36 17.352C13.424 17.352 13.456 17.384 13.456 17.448C13.456 17.448 13.52 17.448 13.648 17.448L14.032 18.504C13.84 18.76 13.68 18.984 13.552 19.176C13.424 19.304 13.36 19.496 13.36 19.752V19.848V20.04C13.36 20.168 13.424 20.296 13.552 20.424C13.552 21.32 13.456 22.024 13.264 22.536C13.136 22.984 13.072 23.368 13.072 23.688C13.072 23.88 13.104 24.008 13.168 24.072L13.456 24.264C13.392 24.712 13.264 25.192 13.072 25.704C12.944 26.152 12.816 26.408 12.688 26.472H12.496L12.4 26.856L12.88 26.76C12.752 26.888 12.624 27.016 12.496 27.144C12.368 27.208 12.304 27.304 12.304 27.432C12.304 27.496 12.336 27.528 12.4 27.528H12.976L12.4 29.448H12.88C12.944 29.64 12.944 29.896 12.88 30.216C12.88 30.472 12.944 30.664 13.072 30.792L12.88 31.08C12.88 31.784 12.848 32.328 12.784 32.712C12.784 33.032 12.752 33.448 12.688 33.96L12.496 34.152L12.976 34.632C12.912 34.76 12.848 34.824 12.784 34.824C12.784 34.824 12.72 34.888 12.592 35.016L12.688 34.728C12.304 34.984 12.048 35.144 11.92 35.208L12.88 35.304C12.496 35.688 12.208 35.88 12.016 35.88H11.92H11.632V36.36C11.632 37.256 11.76 38.088 12.016 38.856C12.272 39.624 12.88 40.008 13.84 40.008C13.968 40.008 14.064 40.008 14.128 40.008C14.192 39.944 14.256 39.912 14.32 39.912C14.32 40.104 14.384 40.2 14.512 40.2C14.768 40.2 15.216 40.104 15.856 39.912C16.56 39.72 17.36 39.624 18.256 39.624H19.12C19.632 39.624 19.984 39.496 20.176 39.24C20.368 38.92 20.592 38.696 20.848 38.568C21.04 38.632 21.136 38.696 21.136 38.76C21.136 38.76 21.2 38.824 21.328 38.952C21.712 38.568 22.128 38.376 22.576 38.376C22.64 38.44 22.8 38.472 23.056 38.472C23.376 38.472 23.536 38.6 23.536 38.856L23.92 38.664C24.048 38.6 24.112 38.536 24.112 38.472C24.176 38.408 24.24 38.376 24.304 38.376C24.752 38.824 25.328 39.08 26.032 39.144L25.84 39.624C25.904 39.688 25.968 39.72 26.032 39.72C26.16 39.72 26.224 39.688 26.224 39.624C26.288 39.496 26.48 39.432 26.8 39.432C26.8 39.496 27.12 39.656 27.76 39.912C28.4 40.168 28.72 40.456 28.72 40.776C28.72 40.904 28.688 41 28.624 41.064L28.72 41.832C28.272 42.024 27.856 42.184 27.472 42.312C27.088 42.44 26.768 42.632 26.512 42.888C26.32 42.888 26.128 42.824 25.936 42.696C25.808 42.568 25.776 42.536 25.84 42.6C25.776 42.728 25.744 42.888 25.744 43.08V43.176C25.744 43.24 25.808 43.272 25.936 43.272C25.296 43.336 24.72 43.432 24.208 43.56C23.76 43.624 23.248 43.656 22.672 43.656C22.48 43.656 22.288 43.656 22.096 43.656C21.904 43.592 21.68 43.56 21.424 43.56C20.848 43.56 20.112 43.816 19.216 44.328C18.384 44.776 17.488 45 16.528 45H15.76C15.504 45 15.152 45 14.704 45C14.256 45.064 13.808 45.128 13.36 45.192C12.976 45.256 12.624 45.352 12.304 45.48C12.048 45.608 11.92 45.8 11.92 46.056L11.728 45.672C11.6 45.992 11.44 46.216 11.248 46.344C11.12 46.472 10.992 46.664 10.864 46.92C10.736 46.792 10.672 46.632 10.672 46.44C10.672 46.12 10.736 45.8 10.864 45.48C10.672 45.608 10.256 45.672 9.616 45.672C9.488 45.352 9.328 45.128 9.136 45C8.944 44.936 8.848 44.872 8.848 44.808L7.792 45.48L7.408 45.672ZM28.24 40.68C28.112 40.68 28.016 40.712 27.952 40.776C27.952 40.84 28.016 40.936 28.144 41.064C28.272 41.064 28.336 40.968 28.336 40.776C28.336 40.712 28.304 40.68 28.24 40.68ZM43.0112 29.064L43.2032 25.992C43.4592 25.416 43.5872 24.744 43.5872 23.976C43.5872 23.528 43.4912 23.016 43.2992 22.44L43.0112 21.288L43.2992 19.56C43.2992 19.368 43.2352 19.08 43.1072 18.696C43.0432 18.248 43.0112 17.96 43.0112 17.832L43.3952 14.376L44.0672 12.648V10.92C44.0672 10.792 44.1312 10.536 44.2592 10.152C44.3872 9.768 44.4512 9.512 44.4512 9.384L44.7392 9.192V10.248H44.9312C45.0592 9.608 45.2512 9.032 45.5072 8.52C45.8272 8.008 45.9872 7.496 45.9872 6.984V6.792L45.3152 6.312C45.3152 5.992 45.3472 5.704 45.4112 5.448C45.5392 5.128 45.6032 4.84 45.6032 4.584L46.1792 3.336L46.9472 3.048C47.0112 3.048 47.3312 3.08 47.9072 3.144C48.5472 3.208 49.2192 3.272 49.9232 3.336C50.6912 3.4 51.3632 3.464 51.9392 3.528C52.5792 3.592 52.8992 3.624 52.8992 3.624L54.3392 4.776L54.9152 6.504V7.272C54.9152 8.936 54.7232 10.568 54.3392 12.168C53.9552 13.704 53.7632 15.4 53.7632 17.256V20.136V20.712C53.2512 21.8 52.8672 22.888 52.6112 23.976C52.4192 25 52.3232 26.152 52.3232 27.432V28.584C52.3232 29.16 52.3552 29.928 52.4192 30.888C52.5472 31.784 52.6112 32.456 52.6112 32.904C52.6112 32.968 52.6432 33.192 52.7072 33.576C52.8352 33.96 52.9632 34.376 53.0912 34.824C53.2192 35.272 53.3152 35.688 53.3792 36.072C53.5072 36.392 53.6032 36.584 53.6672 36.648C54.1792 37.736 54.6272 38.536 55.0112 39.048C55.4592 39.56 55.8432 39.912 56.1632 40.104C56.5472 40.296 56.9312 40.392 57.3152 40.392C57.6992 40.328 58.0832 40.296 58.4672 40.296C58.9152 40.296 59.2672 40.232 59.5232 40.104C60.1632 40.104 60.8352 39.976 61.5392 39.72C62.2432 39.464 62.9152 39.112 63.5553 38.664C64.1952 38.152 64.7072 37.576 65.0913 36.936C65.5393 36.296 65.7633 35.624 65.7633 34.92V34.728L66.9152 29.64C66.8513 29.576 66.7873 29.352 66.7232 28.968C66.7232 28.584 66.6912 28.168 66.6273 27.72C66.6273 27.272 66.6273 26.856 66.6273 26.472C66.6273 26.088 66.6273 25.832 66.6273 25.704L66.7232 24.648C66.7232 24.392 66.7872 24.104 66.9152 23.784C67.1072 23.464 67.2032 23.24 67.2032 23.112L67.6832 23.304L67.2993 21.672L67.5872 20.808C67.4592 20.616 67.3632 20.328 67.2993 19.944C67.2993 19.56 67.2993 19.272 67.2993 19.08C67.1713 19.08 67.0113 19.144 66.8193 19.272C66.6272 19.4 66.5312 19.496 66.5312 19.56L66.1473 19.368V18.024C66.1473 16.936 66.1793 16.104 66.2432 15.528C66.3072 14.888 66.3392 14.088 66.3392 13.128L64.9952 8.808L65.5712 8.616C65.6993 8.552 65.8273 8.488 65.9553 8.424C66.1473 8.36 66.3073 8.328 66.4353 8.328L67.0112 8.232C67.5872 8.104 67.9712 8.04 68.1633 8.04C68.3553 7.976 68.7072 7.944 69.2192 7.944C69.5393 7.944 69.7633 8.008 69.8912 8.136C70.0192 8.2 70.2432 8.232 70.5632 8.232H70.7552C70.6912 8.168 70.6272 8.136 70.5632 8.136C70.4992 8.136 70.4672 8.104 70.4672 8.04C70.4672 7.976 70.5632 7.944 70.7552 7.944C71.2673 7.944 71.8113 8.168 72.3873 8.616C72.9633 9.064 73.3153 9.704 73.4432 10.536C73.6353 11.048 73.8593 11.528 74.1152 11.976C74.2432 12.36 74.3712 12.776 74.4992 13.224C74.6913 13.672 74.7873 14.056 74.7873 14.376C74.7873 14.44 74.7553 14.504 74.6912 14.568C74.6912 14.632 74.6912 14.728 74.6912 14.856V15.24C74.6912 15.752 74.7233 16.232 74.7873 16.68C74.9152 17.064 75.0112 17.512 75.0753 18.024L74.8833 18.6V25.8V25.992C74.8833 27.464 74.8513 28.584 74.7873 29.352C74.7873 30.056 74.7233 30.696 74.5953 31.272C74.5312 31.784 74.4032 32.296 74.2113 32.808C74.0833 33.256 73.9233 33.96 73.7313 34.92C73.5392 35.432 73.3152 35.848 73.0593 36.168C72.8033 36.488 72.6112 36.904 72.4832 37.416C72.0993 38.184 71.9073 38.856 71.9073 39.432C71.9073 39.944 71.6513 40.648 71.1392 41.544C70.0513 42.632 68.9313 43.496 67.7793 44.136C66.6913 44.712 65.6353 45.128 64.6113 45.384C63.6512 45.64 62.7232 45.768 61.8272 45.768C60.9952 45.832 60.2912 45.864 59.7152 45.864C58.1792 45.864 56.6752 45.768 55.2032 45.576C53.7312 45.384 52.3232 45 50.9792 44.424C49.6352 43.784 48.3872 42.888 47.2352 41.736C46.1472 40.584 45.1872 39.048 44.3552 37.128C44.1632 36.744 43.9392 36.2 43.6832 35.496C43.4272 34.792 43.2992 34.376 43.2992 34.248L43.0112 29.064ZM45.4112 7.08V7.272C45.4112 7.336 45.3792 7.464 45.3152 7.656C45.2512 7.784 45.1872 7.912 45.1232 8.04L44.9312 8.712H44.5472L45.0272 7.08H45.4112ZM117.656 38.376L118.328 39.432L117.944 39.912L118.712 41.256L117.656 42.024L113.912 43.368C113.592 43.496 113.304 43.56 113.048 43.56C112.856 43.56 112.664 43.624 112.472 43.752H109.496C108.728 43.88 108.12 44.072 107.672 44.328C107.288 44.584 106.552 44.712 105.464 44.712H104.888C104.632 44.712 104.376 44.68 104.12 44.616C103.928 44.488 103.64 44.424 103.256 44.424C103.128 44.424 102.744 44.488 102.104 44.616C101.528 44.744 101.176 44.808 101.048 44.808H97.0165C96.1845 44.808 95.3205 44.52 94.4245 43.944C93.5925 43.304 92.7285 42.856 91.8325 42.6L91.6405 41.832L89.7205 39.24C89.6565 39.176 89.5925 39.112 89.5285 39.048C89.4645 38.984 89.4325 38.792 89.4325 38.472C89.4325 37.256 89.6245 36.072 90.0085 34.92C90.3925 33.704 90.5845 32.648 90.5845 31.752L90.8725 31.368C90.8725 30.472 90.8405 30.024 90.7765 30.024C90.7765 29.96 90.7125 29.8 90.5845 29.544C90.5845 29.288 90.6805 29.064 90.8725 28.872C90.8085 28.808 90.7765 28.744 90.7765 28.68C90.7765 28.552 90.8725 28.392 91.0645 28.2C91.2565 27.944 91.3525 27.752 91.3525 27.624L91.0645 27.432C91.5125 26.344 91.8005 25.512 91.9285 24.936C92.0565 24.36 92.2165 23.72 92.4085 23.016C92.4085 22.184 92.4725 21.704 92.6005 21.576C92.7925 21.384 92.9845 21.288 93.1765 21.288C93.3685 21.224 93.5285 21.16 93.6565 21.096C93.8485 20.968 93.9445 20.584 93.9445 19.944C94.1365 19.24 94.4245 18.44 94.8085 17.544C95.1925 16.584 95.7045 15.72 96.3445 14.952C97.0485 14.12 97.9125 13.448 98.9365 12.936C99.9605 12.36 101.208 12.072 102.68 12.072C103.128 12.136 103.48 12.168 103.736 12.168C103.992 12.168 104.216 12.168 104.408 12.168H105.176H105.464L104.984 12.744L103.16 13.032C104.184 13.032 105.304 13.16 106.52 13.416C107.8 13.672 109.016 13.8 110.168 13.8C110.168 13.48 109.976 13.288 109.592 13.224C109.208 13.096 108.76 13 108.248 12.936C107.8 12.872 107.352 12.84 106.904 12.84C106.456 12.776 106.168 12.648 106.04 12.456C106.104 12.456 106.232 12.424 106.424 12.36C106.68 12.296 106.872 12.264 107 12.264L108.152 12.36L108.344 12.168C108.984 12.168 109.464 12.232 109.784 12.36C110.104 12.424 110.36 12.52 110.552 12.648C110.808 12.776 111.064 12.904 111.32 13.032C111.64 13.096 112.088 13.128 112.664 13.128H116.216L116.792 13.32C117.176 13.448 117.4 13.512 117.464 13.512L117.176 13.896L117.464 14.376V14.856L116.696 15.624L117.368 16.488L115.832 17.448C115.512 17.64 115.032 17.864 114.392 18.12C113.816 18.376 113.336 18.504 112.952 18.504C112.504 18.504 112.184 18.504 111.992 18.504C111.8 18.44 111.608 18.408 111.416 18.408C111.224 18.408 110.968 18.408 110.648 18.408C110.392 18.344 109.944 18.312 109.304 18.312C108.28 18.312 107.384 18.568 106.616 19.08C105.848 19.592 105.176 20.2 104.6 20.904C104.024 21.544 103.512 22.216 103.064 22.92C102.616 23.56 102.2 24.04 101.816 24.36L101.912 24.552C101.912 25.448 101.624 26.408 101.048 27.432C100.472 28.456 99.9925 29.288 99.6085 29.928L99.4165 30.408L99.6085 30.792C99.4805 31.368 99.2885 31.88 99.0325 32.328C98.7765 32.776 98.6485 33.32 98.6485 33.96L98.8405 34.248L98.6485 34.728L99.1285 34.92C98.7445 35.304 98.5525 35.688 98.5525 36.072C98.5525 36.776 98.8085 37.256 99.3205 37.512C99.8325 37.704 100.088 37.992 100.088 38.376L103.064 38.952L103.736 39.72L105.944 39.144L106.904 38.664L111.224 38.28C111.352 38.28 111.672 38.312 112.184 38.376C112.696 38.376 113.048 38.376 113.24 38.376H113.816C113.944 38.376 114.04 38.408 114.104 38.472C114.232 38.472 114.36 38.472 114.488 38.472C114.552 38.472 114.584 38.472 114.584 38.472C114.648 38.408 114.712 38.376 114.776 38.376L117.272 38.088L117.656 38.376ZM139.375 49.704C139.951 48.104 140.495 46.6 141.007 45.192C141.583 43.848 141.999 43.176 142.255 43.176C142.383 43.176 142.479 43.144 142.543 43.08C142.415 43.08 142.287 43.016 142.159 42.888C142.159 42.696 142.223 42.568 142.351 42.504C142.543 42.376 142.639 42.184 142.639 41.928V41.736L142.351 41.928C142.351 41.608 142.415 41.448 142.543 41.448C142.735 41.448 142.831 41.352 142.831 41.16H142.639C142.639 40.84 142.735 40.584 142.927 40.392C143.183 40.2 143.343 39.912 143.407 39.528L143.503 38.952L144.943 33.768L144.847 33.672C144.783 33.672 144.719 33.672 144.655 33.672C144.591 33.608 144.527 33.576 144.463 33.576H143.023C142.831 33.512 142.511 33.416 142.063 33.288C141.615 33.096 141.167 32.904 140.719 32.712C140.271 32.52 139.887 32.296 139.567 32.04C139.247 31.784 139.087 31.56 139.087 31.368C139.087 31.048 139.151 30.888 139.279 30.888C139.471 30.888 139.727 30.824 140.047 30.696C139.407 30.44 139.087 29.928 139.087 29.16H139.663C139.727 29.16 139.919 29.16 140.239 29.16C140.559 29.096 140.879 29.064 141.199 29.064C141.519 29.064 141.807 29.064 142.063 29.064C142.383 29 142.575 28.968 142.639 28.968H143.983C144.047 28.968 144.239 28.968 144.559 28.968C144.943 28.968 145.359 28.968 145.807 28.968C146.255 28.904 146.639 28.808 146.959 28.68C147.343 28.552 147.535 28.36 147.535 28.104V27.912L148.495 25.32L149.455 23.976L149.647 22.248L150.127 22.344L150.319 20.616L152.335 18.12L151.471 17.448L152.431 15.528C152.495 15.528 152.655 15.208 152.911 14.568C153.167 13.928 153.455 13.16 153.775 12.264C154.159 11.368 154.511 10.44 154.831 9.48C155.215 8.456 155.503 7.592 155.695 6.888L156.175 5.832C156.111 5.768 156.079 5.736 156.079 5.736C156.079 5.608 156.111 5.416 156.175 5.16C156.303 4.904 156.527 4.52 156.847 4.008C156.911 3.88 156.975 3.656 157.039 3.336C157.167 2.952 157.295 2.568 157.423 2.184C157.551 1.736 157.679 1.352 157.807 1.032C157.999 0.647998 158.223 0.391998 158.479 0.263998L158.959 0.551997C158.895 0.551997 158.991 0.551997 159.247 0.551997C159.503 0.487998 159.759 0.391998 160.015 0.263998C160.655 0.839998 161.231 1.256 161.743 1.512C162.255 1.704 162.703 1.864 163.087 1.992C163.535 2.12 163.919 2.28 164.239 2.472C164.559 2.664 164.815 3.016 165.007 3.528C165.007 3.656 165.103 4.04 165.295 4.68C165.551 5.32 165.679 5.768 165.679 6.024V6.12C166.767 7.016 167.663 8.136 168.367 9.48C169.135 10.824 169.519 11.976 169.519 12.936L169.423 13.512L171.151 19.944V21.384C171.535 21.384 171.727 21.48 171.727 21.672C171.599 21.8 171.535 21.96 171.535 22.152L171.343 22.536L171.535 22.728V25.224H171.727C171.727 25.352 171.695 25.48 171.631 25.608C171.567 25.736 171.535 25.864 171.535 25.992L171.919 26.376C171.855 26.632 171.823 26.984 171.823 27.432C171.823 27.88 171.855 28.296 171.919 28.68C171.983 29 172.079 29.352 172.207 29.736C172.015 29.864 171.919 30.184 171.919 30.696C171.919 30.888 171.951 31.016 172.015 31.08C172.079 31.08 172.111 31.144 172.111 31.272C172.111 31.464 172.079 31.624 172.015 31.752L172.495 31.56L172.207 31.944L172.495 32.328L172.207 33.192C172.207 33.448 172.303 33.672 172.495 33.864C172.751 34.056 172.879 34.312 172.879 34.632C172.751 34.632 172.687 34.696 172.687 34.824V34.92C172.687 35.112 172.719 35.24 172.783 35.304C172.847 35.304 172.879 35.368 172.879 35.496L172.687 35.88C172.687 36.584 172.719 37 172.783 37.128C172.847 37.256 173.039 37.576 173.359 38.088V38.472V40.872C173.487 41 173.583 41.096 173.647 41.16C173.775 41.16 173.839 41.224 173.839 41.352C173.839 41.416 173.807 41.48 173.743 41.544L173.935 41.832C173.935 42.152 173.967 42.472 174.031 42.792C174.159 43.048 174.223 43.24 174.223 43.368C174.223 43.816 174.063 44.136 173.743 44.328C173.487 44.456 173.359 44.712 173.359 45.096C173.295 45.096 173.231 45 173.167 44.808C173.167 44.616 173.039 44.52 172.783 44.52C172.783 44.84 172.751 45 172.687 45C172.687 45.064 172.559 45.096 172.303 45.096H171.823C171.695 45.096 171.567 44.968 171.439 44.712C171.375 44.456 171.279 44.328 171.151 44.328H169.519C169.263 44.328 169.135 44.296 169.135 44.232C169.135 44.104 169.071 44.04 168.943 44.04C168.687 44.04 168.495 44.136 168.367 44.328C168.239 44.456 168.015 44.52 167.695 44.52C166.543 44.264 165.967 43.528 165.967 42.312C165.967 42.184 165.999 42.088 166.063 42.024C166.191 41.896 166.255 41.8 166.255 41.736C166.255 40.904 166.159 40.2 165.967 39.624C165.775 38.984 165.679 38.28 165.679 37.512C165.871 37.512 165.999 37.576 166.063 37.704C166.127 37.768 166.223 37.864 166.351 37.992C166.223 37.992 166.159 38.152 166.159 38.472C166.159 38.728 166.383 38.92 166.831 39.048C166.831 38.92 166.799 38.856 166.735 38.856C166.735 38.856 166.735 38.824 166.735 38.76C166.735 38.696 166.735 38.664 166.735 38.664C166.799 38.6 166.831 38.536 166.831 38.472C166.767 38.28 166.735 38.056 166.735 37.8C166.735 37.48 166.703 37.16 166.639 36.84L166.447 35.688L166.255 35.4L166.159 36.264L165.967 35.784L165.583 37.032C165.583 36.84 165.551 36.584 165.487 36.264C165.487 35.88 165.487 35.496 165.487 35.112V33.576C165.423 33.448 165.199 33.352 164.815 33.288C164.495 33.16 164.111 33.096 163.663 33.096C163.279 33.032 162.895 33 162.511 33C162.127 33 161.839 33 161.647 33C161.327 33 161.071 33.032 160.879 33.096C160.687 33.16 160.431 33.192 160.111 33.192C159.727 33.192 159.311 33.16 158.863 33.096C158.415 32.968 158.095 32.904 157.903 32.904H156.943C156.559 32.904 156.271 33.064 156.079 33.384C155.951 33.704 155.855 34.088 155.791 34.536C155.727 34.92 155.695 35.304 155.695 35.688C155.695 36.072 155.663 36.328 155.599 36.456L155.215 37.224L155.791 37.416L155.599 37.704H154.639C154.639 38.152 154.479 38.696 154.159 39.336C153.839 39.976 153.551 40.488 153.295 40.872L153.103 41.16C153.103 41.224 153.071 41.288 153.007 41.352C153.007 41.416 153.007 41.48 153.007 41.544V41.736C153.007 41.928 153.103 42.12 153.295 42.312C152.975 42.632 152.687 43.08 152.431 43.656C152.175 44.168 151.983 44.68 151.855 45.192V46.056C151.599 46.76 151.279 47.496 150.895 48.264C150.511 49.096 150.319 49.8 150.319 50.376H150.895C150.767 50.568 150.607 50.664 150.415 50.664C150.223 50.664 150.127 50.792 150.127 51.048H150.223C150.351 51.048 150.415 51.176 150.415 51.432C150.415 51.816 150.287 52.104 150.031 52.296C149.839 52.552 149.615 52.776 149.359 52.968C149.167 53.224 148.943 53.512 148.687 53.832C148.495 54.152 148.399 54.6 148.399 55.176L148.687 55.368C148.687 55.56 148.495 55.944 148.111 56.52C147.727 57.096 147.471 57.544 147.343 57.864C147.343 58.056 147.151 58.184 146.767 58.248C146.767 58.44 146.831 58.536 146.959 58.536C147.087 58.536 147.215 58.568 147.343 58.632C147.215 58.888 147.087 59.08 146.959 59.208C146.831 59.336 146.767 59.528 146.767 59.784L147.343 59.592C147.343 59.848 147.279 60.008 147.151 60.072C147.087 60.136 147.055 60.264 147.055 60.456V60.552L145.999 63.144H146.287L145.903 66.024C145.711 66.28 145.615 66.472 145.615 66.6C145.615 66.792 145.551 67.048 145.423 67.368L145.519 67.464C145.519 67.592 145.359 67.688 145.039 67.752C144.783 67.816 144.495 68.008 144.175 68.328C144.047 68.328 143.887 68.232 143.695 68.04C143.567 67.848 143.503 67.688 143.503 67.56C143.503 67.496 143.535 67.432 143.599 67.368C143.279 67.176 143.119 67.048 143.119 66.984C143.119 66.92 142.991 66.888 142.735 66.888L142.447 67.272C142.319 67.656 142.255 67.816 142.255 67.752L140.143 67.464L141.967 66.888C141.839 66.824 141.455 66.76 140.815 66.696C140.239 66.696 139.855 66.696 139.663 66.696C139.535 66.824 139.471 66.92 139.471 66.984C139.471 67.048 139.375 67.08 139.183 67.08V66.408C139.119 66.472 139.055 66.504 138.991 66.504C138.863 66.504 138.639 66.44 138.319 66.312C137.999 66.248 137.711 66.216 137.455 66.216V65.736C137.007 65.736 136.655 65.832 136.399 66.024C136.079 65.704 135.791 65.288 135.535 64.776C135.343 64.328 135.183 64.04 135.055 63.912C135.503 63.656 135.727 63.336 135.727 62.952C135.791 62.568 135.823 62.12 135.823 61.608H136.111L136.591 62.568C136.719 61.736 136.911 60.84 137.167 59.88C137.487 58.92 137.647 58.088 137.647 57.384V56.328L137.935 55.176C138.191 54.664 138.383 54.28 138.511 54.024C138.639 53.768 138.767 53.416 138.895 52.968L139.183 52.584H140.239L141.775 52.104V52.584L141.199 53.64V54.696L141.871 55.272C141.871 54.952 142.031 54.568 142.351 54.12C142.735 53.736 142.927 53.416 142.927 53.16V51.624C142.927 51.432 142.831 51.272 142.639 51.144C142.511 51.08 142.383 51.048 142.255 51.048H141.775L141.199 51.624H139.663L139.375 49.704ZM158.671 27.912H159.919C160.175 27.912 160.559 27.912 161.071 27.912C161.647 27.912 162.191 27.88 162.703 27.816C163.279 27.688 163.759 27.528 164.143 27.336C164.527 27.144 164.719 26.888 164.719 26.568H164.335V25.224C164.271 25.224 164.239 25.192 164.239 25.128V24.552H164.047C164.047 24.424 164.079 24.328 164.143 24.264C164.207 24.2 164.239 24.104 164.239 23.976V23.784L163.759 23.688C163.951 23.688 164.111 23.624 164.239 23.496L164.047 22.728V22.536C164.047 22.408 164.079 22.344 164.143 22.344C164.207 22.28 164.239 22.152 164.239 21.96C164.239 21.576 164.111 21.192 163.855 20.808C163.663 20.424 163.567 20.072 163.567 19.752L163.759 19.08L162.703 16.488V16.296C162.703 16.168 162.639 15.976 162.511 15.72C162.383 15.464 162.319 15.304 162.319 15.24C161.743 16.904 161.103 18.824 160.399 21C159.695 23.112 158.991 24.968 158.287 26.568L158.095 27.72L158.671 27.912ZM140.047 57.384C140.047 57.512 139.983 57.832 139.855 58.344L139.663 58.92V61.608L140.239 61.128C140.239 60.808 140.271 60.52 140.335 60.264C140.463 60.008 140.527 59.752 140.527 59.496V56.808L140.047 57.384ZM138.703 57.576C138.575 57.896 138.447 58.216 138.319 58.536C138.191 58.856 138.127 59.176 138.127 59.496V60.936L138.703 59.496V57.576ZM166.927 42.216V42.504C166.927 42.952 167.087 43.176 167.407 43.176C167.407 43.112 167.407 43.016 167.407 42.888C167.471 42.696 167.503 42.536 167.503 42.408C167.503 42.024 167.375 41.832 167.119 41.832C166.991 41.832 166.927 41.96 166.927 42.216ZM142.255 55.752C141.999 55.752 141.871 55.944 141.871 56.328C141.871 56.648 141.999 56.808 142.255 56.808C142.575 56.808 142.735 56.648 142.735 56.328C142.735 55.944 142.575 55.752 142.255 55.752ZM141.199 55.272C140.943 55.272 140.815 55.464 140.815 55.848C140.815 56.168 140.943 56.328 141.199 56.328C141.519 56.328 141.679 56.168 141.679 55.848C141.679 55.464 141.519 55.272 141.199 55.272ZM141.967 66.216C141.967 66.152 141.679 66.12 141.103 66.12C140.591 66.12 140.303 66.12 140.239 66.12C140.175 66.12 140.143 66.152 140.143 66.216L140.239 66.408H140.911C141.167 66.408 141.391 66.408 141.583 66.408C141.839 66.408 141.967 66.344 141.967 66.216ZM138.127 62.088C138.127 61.768 138.031 61.608 137.839 61.608C137.711 61.608 137.647 61.768 137.647 62.088C137.647 62.344 137.711 62.472 137.839 62.472C138.031 62.472 138.127 62.344 138.127 62.088ZM166.831 40.2V40.488V41.064V41.256H167.023C167.023 41.128 167.023 41.032 167.023 40.968C167.087 40.904 167.119 40.808 167.119 40.68C167.119 40.488 167.023 40.328 166.831 40.2ZM145.423 66.024H145.615L145.423 65.736V66.024ZM144.367 67.656V67.464H144.175L144.367 67.656ZM190.425 40.392C191.065 40.2 191.833 40.104 192.729 40.104C194.521 40.104 196.185 40.232 197.721 40.488C199.257 40.744 200.665 40.904 201.945 40.968L202.713 40.488L205.305 40.296C205.369 40.36 205.465 40.392 205.593 40.392C205.849 40.392 206.041 40.296 206.169 40.104C206.297 39.912 206.457 39.816 206.649 39.816C207.225 39.816 207.929 39.688 208.761 39.432C209.593 39.176 210.137 38.856 210.393 38.472C210.841 37 211.161 35.528 211.353 34.056C211.545 32.584 211.641 31.304 211.641 30.216L211.065 29.064C211.065 28.744 210.809 28.52 210.297 28.392C209.849 28.2 209.561 28.104 209.433 28.104L208.377 27.72C207.801 27.72 207.289 27.624 206.841 27.432C206.457 27.24 206.009 27.048 205.497 26.856C205.049 26.664 204.473 26.472 203.769 26.28C203.065 26.088 202.169 25.992 201.081 25.992H200.217C199.961 25.992 199.833 25.864 199.833 25.608C199.321 25.096 198.745 24.776 198.105 24.648C197.529 24.52 197.017 24.168 196.569 23.592C196.441 23.528 196.281 23.272 196.089 22.824C195.897 22.312 195.705 21.768 195.513 21.192C195.321 20.552 195.161 19.944 195.033 19.368C194.905 18.792 194.841 18.408 194.841 18.216C195.161 18.216 195.321 17.992 195.321 17.544C195.321 17.416 195.289 17.288 195.225 17.16C195.225 17.032 195.225 16.904 195.225 16.776C195.225 16.648 195.321 16.488 195.513 16.296L195.897 16.008C196.153 15.752 196.217 15.528 196.089 15.336C196.025 15.08 196.121 14.888 196.377 14.76V15.624L196.569 15.528L198.777 8.616L201.753 5.448L203.481 4.392L205.305 5.064C205.753 5.064 206.265 4.968 206.841 4.776C207.481 4.584 208.057 4.488 208.569 4.488C209.465 4.488 210.521 4.648 211.737 4.968C212.953 5.288 214.137 5.704 215.289 6.216C216.441 6.664 217.465 7.144 218.361 7.656C219.321 8.104 219.961 8.456 220.281 8.712C220.217 9.16 220.121 9.384 219.993 9.384C219.865 9.384 219.801 9.448 219.801 9.576C219.801 9.768 219.833 9.928 219.897 10.056C219.961 10.12 219.993 10.248 219.993 10.44C219.993 10.632 219.833 10.856 219.513 11.112C219.193 11.368 218.905 11.496 218.649 11.496L213.081 11.016H212.793C212.473 11.016 211.961 11.016 211.257 11.016C210.617 10.952 210.137 10.92 209.817 10.92C208.857 10.92 207.993 11.176 207.225 11.688C206.457 12.2 205.785 12.904 205.209 13.8C204.697 14.632 204.281 15.592 203.961 16.68C203.705 17.704 203.577 18.792 203.577 19.944C203.577 20.136 203.705 20.328 203.961 20.52C204.217 20.712 204.505 20.872 204.825 21C205.145 21.064 205.465 21.128 205.785 21.192C206.105 21.256 206.361 21.288 206.553 21.288L206.937 21.384C207.385 21.704 207.673 21.928 207.801 22.056C207.929 22.184 208.153 22.248 208.473 22.248H208.857L210.009 22.152L211.641 22.728C211.769 22.792 211.993 22.824 212.313 22.824H213.369C214.393 23.208 215.385 23.624 216.345 24.072C217.305 24.52 218.137 25.16 218.841 25.992C219.609 26.76 220.217 27.784 220.665 29.064C221.113 30.28 221.337 31.848 221.337 33.768C221.337 34.344 221.305 34.92 221.241 35.496C221.177 36.008 221.049 36.584 220.857 37.224L220.761 37.416C220.633 37.544 220.409 37.832 220.089 38.28C219.769 38.728 219.545 38.984 219.417 39.048L219.033 40.104L218.553 40.488L214.809 45.384C213.977 45.512 213.177 45.704 212.409 45.96C211.705 46.28 210.969 46.44 210.201 46.44C210.073 46.44 209.817 46.376 209.433 46.248C208.921 46.376 208.441 46.44 207.993 46.44C207.545 46.44 207.097 46.44 206.649 46.44C206.009 46.44 204.889 46.376 203.289 46.248C201.689 46.12 199.993 45.928 198.201 45.672C196.473 45.48 194.777 45.256 193.113 45C191.513 44.808 190.329 44.616 189.561 44.424C189.561 44.232 189.625 44.136 189.753 44.136C189.945 44.072 190.041 43.912 190.041 43.656C190.041 43.592 190.009 43.56 189.945 43.56H189.849C189.721 43.56 189.625 43.464 189.561 43.272C189.689 43.272 189.881 43.24 190.137 43.176C190.457 43.112 190.617 43.016 190.617 42.888L190.329 42.216L190.521 41.928C190.585 41.8 190.649 41.704 190.713 41.64C190.777 41.576 190.809 41.512 190.809 41.448C190.809 41.128 190.745 41 190.617 41.064C190.489 41.128 190.425 40.904 190.425 40.392ZM197.145 11.88C197.145 12.008 197.049 12.424 196.857 13.128C196.729 13.768 196.633 14.152 196.569 14.28C196.377 14.28 196.281 14.184 196.281 13.992C196.281 13.928 196.377 13.608 196.569 13.032C196.761 12.392 196.953 12.008 197.145 11.88ZM197.817 9.384C197.817 9.448 197.849 9.48 197.913 9.48H198.201L197.337 10.92C197.209 10.92 197.145 10.824 197.145 10.632C197.145 10.504 197.209 10.312 197.337 10.056C197.529 9.736 197.689 9.512 197.817 9.384ZM272.102 45.672L270.182 45.48C269.094 45.352 268.07 44.968 267.11 44.328C266.15 43.624 265.638 42.76 265.574 41.736C265.574 41.544 265.606 41.416 265.67 41.352L266.15 41.256L266.342 40.392C266.214 40.392 266.086 40.328 265.958 40.2L266.054 39.816L266.246 39.624L266.054 38.856C266.054 38.792 266.086 38.76 266.15 38.76C266.214 38.824 266.278 38.856 266.342 38.856L267.11 37.896L267.302 37.992C267.174 37.992 267.078 38.12 267.014 38.376C267.014 38.632 267.014 38.92 267.014 39.24V39.624C267.014 39.688 267.046 39.752 267.11 39.816H267.302C267.366 39.752 267.398 39.624 267.398 39.432V38.76C267.398 38.632 267.43 38.376 267.494 37.992C267.622 37.544 267.686 37.256 267.686 37.128V34.152C267.686 34.024 267.718 33.48 267.782 32.52C267.91 31.56 268.038 30.536 268.166 29.448C268.294 28.36 268.39 27.368 268.454 26.472C268.582 25.512 268.646 24.968 268.646 24.84L269.222 23.88L268.646 22.536C268.646 22.216 268.71 21.672 268.838 20.904C268.966 20.072 269.03 19.528 269.03 19.272L269.318 17.928L269.99 16.968L269.414 16.584V14.76L269.894 13.224L269.606 13.128L270.662 5.832C270.662 5.768 270.63 5.736 270.566 5.736C270.566 5.672 270.566 5.608 270.566 5.544C270.566 5.032 270.662 4.456 270.854 3.816C271.046 3.112 271.142 2.664 271.142 2.472L272.87 2.376L274.598 1.8H275.75C276.006 1.8 276.454 1.992 277.094 2.376C277.734 2.76 278.214 3.112 278.534 3.432L279.686 4.488C279.75 4.616 279.846 4.84 279.974 5.16C280.102 5.48 280.198 5.64 280.262 5.64L280.358 6.12C280.294 6.248 280.198 6.664 280.07 7.368C280.006 8.008 279.846 8.712 279.59 9.48C279.654 9.608 279.686 9.768 279.686 9.96C279.686 10.152 279.622 10.344 279.494 10.536C279.43 10.664 279.334 10.792 279.206 10.92V11.016L279.11 11.112C279.11 11.176 279.142 11.208 279.206 11.208H279.59C279.59 11.464 279.43 11.752 279.11 12.072C279.238 12.2 279.302 12.296 279.302 12.36C279.302 12.488 279.174 12.712 278.918 13.032C278.726 13.288 278.63 13.672 278.63 14.184L278.726 14.472C278.662 14.6 278.598 14.664 278.534 14.664C278.47 14.664 278.438 14.696 278.438 14.76C278.438 14.888 278.534 15.048 278.726 15.24C278.662 15.56 278.534 15.72 278.342 15.72C278.15 15.72 278.054 16.008 278.054 16.584C278.054 16.712 278.246 16.808 278.63 16.872C278.182 17.128 277.958 17.256 277.958 17.256C277.958 17.32 277.99 17.352 278.054 17.352C278.118 17.352 278.15 17.384 278.15 17.448C278.15 17.448 278.214 17.448 278.342 17.448L278.726 18.504C278.534 18.76 278.374 18.984 278.246 19.176C278.118 19.304 278.054 19.496 278.054 19.752V19.848V20.04C278.054 20.168 278.118 20.296 278.246 20.424C278.246 21.32 278.15 22.024 277.958 22.536C277.83 22.984 277.766 23.368 277.766 23.688C277.766 23.88 277.798 24.008 277.862 24.072L278.15 24.264C278.086 24.712 277.958 25.192 277.766 25.704C277.638 26.152 277.51 26.408 277.382 26.472H277.19L277.094 26.856L277.574 26.76C277.446 26.888 277.318 27.016 277.19 27.144C277.062 27.208 276.998 27.304 276.998 27.432C276.998 27.496 277.03 27.528 277.094 27.528H277.67L277.094 29.448H277.574C277.638 29.64 277.638 29.896 277.574 30.216C277.574 30.472 277.638 30.664 277.766 30.792L277.574 31.08C277.574 31.784 277.542 32.328 277.478 32.712C277.478 33.032 277.446 33.448 277.382 33.96L277.19 34.152L277.67 34.632C277.606 34.76 277.542 34.824 277.478 34.824C277.478 34.824 277.414 34.888 277.286 35.016L277.382 34.728C276.998 34.984 276.742 35.144 276.614 35.208L277.574 35.304C277.19 35.688 276.902 35.88 276.71 35.88H276.614H276.326V36.36C276.326 37.256 276.454 38.088 276.71 38.856C276.966 39.624 277.574 40.008 278.534 40.008C278.662 40.008 278.758 40.008 278.822 40.008C278.886 39.944 278.95 39.912 279.014 39.912C279.014 40.104 279.078 40.2 279.206 40.2C279.462 40.2 279.91 40.104 280.55 39.912C281.254 39.72 282.054 39.624 282.95 39.624H283.814C284.326 39.624 284.678 39.496 284.87 39.24C285.062 38.92 285.286 38.696 285.542 38.568C285.734 38.632 285.83 38.696 285.83 38.76C285.83 38.76 285.894 38.824 286.022 38.952C286.406 38.568 286.822 38.376 287.27 38.376C287.334 38.44 287.494 38.472 287.75 38.472C288.07 38.472 288.23 38.6 288.23 38.856L288.614 38.664C288.742 38.6 288.806 38.536 288.806 38.472C288.87 38.408 288.934 38.376 288.998 38.376C289.446 38.824 290.022 39.08 290.726 39.144L290.534 39.624C290.598 39.688 290.662 39.72 290.726 39.72C290.854 39.72 290.918 39.688 290.918 39.624C290.982 39.496 291.174 39.432 291.494 39.432C291.494 39.496 291.814 39.656 292.454 39.912C293.094 40.168 293.414 40.456 293.414 40.776C293.414 40.904 293.382 41 293.318 41.064L293.414 41.832C292.966 42.024 292.55 42.184 292.166 42.312C291.782 42.44 291.462 42.632 291.206 42.888C291.014 42.888 290.822 42.824 290.63 42.696C290.502 42.568 290.47 42.536 290.534 42.6C290.47 42.728 290.438 42.888 290.438 43.08V43.176C290.438 43.24 290.502 43.272 290.63 43.272C289.99 43.336 289.414 43.432 288.902 43.56C288.454 43.624 287.942 43.656 287.366 43.656C287.174 43.656 286.982 43.656 286.79 43.656C286.598 43.592 286.374 43.56 286.118 43.56C285.542 43.56 284.806 43.816 283.91 44.328C283.078 44.776 282.182 45 281.222 45H280.454C280.198 45 279.846 45 279.398 45C278.95 45.064 278.502 45.128 278.054 45.192C277.67 45.256 277.318 45.352 276.998 45.48C276.742 45.608 276.614 45.8 276.614 46.056L276.422 45.672C276.294 45.992 276.134 46.216 275.942 46.344C275.814 46.472 275.686 46.664 275.558 46.92C275.43 46.792 275.366 46.632 275.366 46.44C275.366 46.12 275.43 45.8 275.558 45.48C275.366 45.608 274.95 45.672 274.31 45.672C274.182 45.352 274.022 45.128 273.83 45C273.638 44.936 273.542 44.872 273.542 44.808L272.486 45.48L272.102 45.672ZM292.934 40.68C292.806 40.68 292.71 40.712 292.646 40.776C292.646 40.84 292.71 40.936 292.838 41.064C292.966 41.064 293.03 40.968 293.03 40.776C293.03 40.712 292.998 40.68 292.934 40.68ZM329.785 27.336C329.657 27.336 329.433 27.368 329.113 27.432C328.857 27.496 328.601 27.528 328.345 27.528H328.153L327.865 27.432C327.673 27.432 327.417 27.528 327.097 27.72C326.841 27.848 326.617 27.912 326.425 27.912L325.369 28.488L324.409 28.296L322.969 28.68L321.913 28.488C321.785 28.488 321.497 28.648 321.049 28.968C320.601 29.224 320.281 29.352 320.089 29.352L319.225 29.448L317.689 33.672C317.497 34.248 317.305 34.824 317.113 35.4C316.985 35.912 316.921 36.264 316.921 36.456V37.608L317.305 38.088H317.689C317.881 38.088 318.137 38.152 318.457 38.28C318.841 38.344 319.129 38.376 319.321 38.376H321.625C323.993 38.568 325.561 38.664 326.329 38.664H326.713C326.841 38.664 327.193 38.696 327.769 38.76C328.345 38.824 328.665 38.856 328.729 38.856C328.793 38.856 328.953 38.856 329.209 38.856C329.465 38.792 329.721 38.76 329.977 38.76C330.297 38.76 330.553 38.76 330.745 38.76C331.001 38.696 331.161 38.664 331.225 38.664L335.641 39.432C335.833 39.432 336.121 39.464 336.505 39.528C336.953 39.592 337.369 39.688 337.753 39.816C338.201 39.88 338.585 39.976 338.905 40.104C339.289 40.232 339.481 40.328 339.481 40.392C339.481 41.096 339.129 41.672 338.425 42.12C337.721 42.568 337.241 42.92 336.985 43.176H336.889C335.481 43.496 334.201 43.688 333.049 43.752C331.961 43.752 330.713 43.752 329.305 43.752H325.561C325.177 43.624 324.761 43.56 324.313 43.56C323.929 43.56 323.513 43.56 323.065 43.56C322.489 43.56 321.337 43.656 319.609 43.848C317.945 43.976 316.345 44.04 314.809 44.04L313.081 44.424C312.633 44.36 312.153 44.264 311.641 44.136C311.129 44.008 310.745 43.816 310.489 43.56L308.089 40.776L307.705 39.816V38.184L308.473 36.552C308.473 36.488 308.537 36.2 308.665 35.688L308.953 35.112C309.081 34.728 309.209 34.408 309.337 34.152C309.465 33.896 309.625 33.576 309.817 33.192L310.009 33.48C310.137 33.224 310.201 33 310.201 32.808V32.616L309.817 32.808L309.625 32.616C309.625 32.232 309.689 31.816 309.817 31.368C310.009 30.856 310.137 30.248 310.201 29.544C310.265 29.608 310.361 29.64 310.489 29.64C310.681 29.64 310.905 29.576 311.161 29.448C311.417 29.256 311.609 29.096 311.737 28.968L311.161 28.872C311.161 28.232 311.321 27.688 311.641 27.24C311.961 26.792 312.121 26.248 312.121 25.608C311.737 25.608 311.449 25.704 311.257 25.896C311.065 26.024 310.905 26.184 310.777 26.376C310.649 26.568 310.521 26.792 310.393 27.048C310.265 27.24 310.041 27.432 309.721 27.624V27.048C309.721 26.984 309.785 26.664 309.913 26.088C310.105 25.448 310.329 24.744 310.585 23.976C310.905 23.144 311.257 22.344 311.641 21.576C312.089 20.744 312.569 20.072 313.081 19.56L313.273 19.848C313.465 19.592 313.625 19.336 313.753 19.08C313.945 18.76 314.041 18.44 314.041 18.12V17.832L313.657 18.696L313.273 18.504L313.657 17.352L313.849 17.544C313.913 17.608 314.073 17.64 314.329 17.64C314.393 17.64 314.489 17.32 314.617 16.68C314.809 15.976 314.937 15.464 315.001 15.144C314.873 15.464 314.681 15.816 314.425 16.2C314.233 16.52 314.105 16.712 314.041 16.776H313.849C313.849 16.584 313.945 16.232 314.137 15.72C314.329 15.208 314.425 14.856 314.425 14.664L314.809 12.648V11.688L312.793 10.056L311.833 9.288C311.705 9.224 311.609 9.032 311.545 8.712C311.481 8.328 311.449 8.104 311.449 8.04C311.449 7.528 311.737 7.272 312.313 7.272H317.881C318.137 7.272 318.521 7.176 319.033 6.984L320.281 6.696L322.585 6.792C323.609 6.728 324.601 6.696 325.561 6.696C326.585 6.696 327.609 6.6 328.633 6.408H338.329C338.713 6.408 339.257 6.664 339.961 7.176C340.665 7.624 341.017 8.008 341.017 8.328C341.017 8.648 340.889 8.872 340.633 9C340.441 9.064 340.345 9.192 340.345 9.384L340.441 9.864C340.441 9.992 340.089 10.12 339.385 10.248C338.745 10.312 338.201 10.344 337.753 10.344H336.121C335.353 10.344 334.713 10.472 334.201 10.728C333.689 10.92 333.209 11.144 332.761 11.4C332.377 11.656 331.993 11.912 331.609 12.168C331.225 12.36 330.841 12.456 330.457 12.456C330.457 12.712 330.265 12.904 329.881 13.032C329.561 13.16 329.145 13.288 328.633 13.416C328.185 13.544 327.705 13.704 327.193 13.896C326.745 14.024 326.393 14.216 326.137 14.472C325.625 14.984 325.145 15.56 324.697 16.2C324.249 16.776 323.801 17.384 323.353 18.024C322.841 18.728 322.361 19.464 321.913 20.232C321.913 20.488 322.041 20.616 322.297 20.616C322.105 21.256 321.817 21.672 321.433 21.864C321.113 22.056 320.953 22.568 320.953 23.4C322.489 23.4 323.961 23.368 325.369 23.304C326.777 23.176 328.249 23.112 329.785 23.112H332.473C332.665 23.112 332.921 23.176 333.241 23.304C333.625 23.368 333.881 23.4 334.009 23.4L335.161 23.88V24.264L335.929 23.88L335.737 24.84L335.353 26.184C335.225 26.184 335.097 26.248 334.969 26.376C334.841 26.504 334.649 26.664 334.393 26.856C334.201 27.048 333.945 27.208 333.625 27.336C333.305 27.464 332.857 27.528 332.281 27.528C331.897 27.528 331.449 27.496 330.937 27.432C330.489 27.368 330.105 27.336 329.785 27.336ZM310.585 30.024C310.457 30.152 310.393 30.312 310.393 30.504V30.888C310.777 30.504 311.161 30.312 311.545 30.312V30.024H310.585ZM356.901 28.68C356.901 28.616 356.933 28.392 356.997 28.008C357.061 27.624 357.125 27.208 357.189 26.76C357.317 26.312 357.413 25.896 357.477 25.512C357.541 25.064 357.573 24.776 357.573 24.648L357.861 23.496C357.861 23.304 357.989 23.048 358.245 22.728C358.501 22.408 358.629 22.184 358.629 22.056L359.109 22.344C359.109 22.28 359.077 22.216 359.013 22.152C359.013 22.088 359.013 21.992 359.013 21.864C359.013 21.608 359.013 21.384 359.013 21.192C359.077 21 359.109 20.84 359.109 20.712L359.397 19.944C359.397 19.88 359.365 19.816 359.301 19.752C359.301 19.624 359.301 19.496 359.301 19.368C359.301 19.112 359.301 18.888 359.301 18.696C359.365 18.44 359.397 18.248 359.397 18.12C359.077 18.12 358.885 18.152 358.821 18.216L358.629 18.312C358.629 18.056 358.661 17.576 358.725 16.872C358.853 16.104 359.013 15.272 359.205 14.376C359.397 13.416 359.621 12.392 359.877 11.304C360.197 10.216 360.549 9.128 360.933 8.04C361.125 7.848 361.285 7.528 361.413 7.08C361.541 6.568 361.733 6.088 361.989 5.64C362.245 5.128 362.597 4.712 363.045 4.392C363.493 4.008 364.133 3.816 364.965 3.816C365.093 3.816 365.477 3.912 366.117 4.104C366.757 4.296 367.557 4.392 368.517 4.392C369.221 4.392 369.765 4.488 370.149 4.68C370.597 4.808 370.821 5.224 370.821 5.928C370.821 6.312 370.789 6.6 370.725 6.792L370.149 11.4C371.109 10.76 371.877 10.248 372.453 9.864C373.029 9.48 373.861 9.096 374.949 8.712L377.349 7.656C377.477 7.72 377.573 7.816 377.637 7.944C377.701 8.072 377.893 8.168 378.213 8.232L378.981 8.52C380.645 9.224 382.117 10.216 383.397 11.496C384.741 12.712 385.797 14.248 386.565 16.104C386.757 16.424 386.821 16.744 386.757 17.064C386.757 17.384 386.821 17.736 386.949 18.12L387.045 18.312C387.301 18.568 387.429 18.952 387.429 19.464C387.493 19.976 387.717 20.552 388.101 21.192L388.293 21.48C388.677 21.48 388.869 21.64 388.869 21.96C388.869 22.28 388.837 22.472 388.773 22.536L389.253 22.344C389.253 22.536 389.253 22.664 389.253 22.728C389.317 22.728 389.349 22.856 389.349 23.112C389.349 23.24 389.317 23.368 389.253 23.496C389.189 23.624 389.157 23.72 389.157 23.784V24.072L389.445 23.976C389.701 24.168 389.861 24.616 389.925 25.32C390.053 25.96 390.181 26.44 390.309 26.76C390.181 26.76 390.117 26.856 390.117 27.048V27.336H390.405C390.277 27.784 389.989 28.264 389.541 28.776C389.157 29.224 388.933 29.672 388.869 30.12V30.216C388.869 30.344 388.805 30.408 388.677 30.408C388.613 30.344 388.517 30.344 388.389 30.408C387.941 30.792 387.461 31.24 386.949 31.752C386.501 32.264 386.085 32.776 385.701 33.288C385.317 33.736 384.965 34.184 384.645 34.632C384.389 35.016 384.261 35.24 384.261 35.304C383.749 35.752 383.173 36.392 382.533 37.224C381.957 37.992 381.413 38.76 380.901 39.528C380.389 40.296 379.973 40.968 379.653 41.544C379.333 42.056 379.173 42.312 379.173 42.312L378.885 42.216C378.757 42.344 378.565 42.568 378.309 42.888C378.053 43.144 377.765 43.432 377.445 43.752C377.189 44.072 376.901 44.36 376.581 44.616C376.261 44.872 376.005 45.032 375.813 45.096C375.685 45.16 375.461 45.192 375.141 45.192C374.885 45.192 374.757 45.288 374.757 45.48C374.757 45.608 374.789 45.704 374.853 45.768H373.989L373.509 45.384C373.381 45.512 373.285 45.544 373.221 45.48C373.221 45.416 373.221 45.448 373.221 45.576C372.901 45.576 372.549 45.48 372.165 45.288C371.845 45.16 371.525 45.096 371.205 45.096C369.797 45.032 368.517 44.968 367.365 44.904C366.277 44.776 365.093 44.712 363.813 44.712H362.661C362.661 44.968 362.373 45.096 361.797 45.096L361.509 45C361.381 45 361.317 45.096 361.317 45.288V45.48H360.261L359.973 45.672C359.845 45.16 359.685 44.84 359.493 44.712C359.365 44.904 359.205 45 359.013 45H358.149L357.861 44.616C357.797 44.616 357.765 44.648 357.765 44.712C357.765 44.712 357.733 44.712 357.669 44.712H357.477C356.773 44.456 356.293 44.072 356.037 43.56C355.781 42.984 355.653 42.76 355.653 42.888L355.557 42.312V42.216C355.557 42.088 355.589 41.928 355.653 41.736C355.717 41.544 355.749 41.352 355.749 41.16C355.749 40.904 355.717 40.776 355.653 40.776C355.589 40.712 355.557 40.616 355.557 40.488C355.557 40.424 355.557 40.36 355.557 40.296C355.621 40.168 355.685 39.912 355.749 39.528C355.813 39.144 355.877 38.568 355.941 37.8C356.005 37.032 356.069 35.976 356.133 34.632L356.229 33.672C356.357 33.032 356.421 32.712 356.421 32.712C356.421 32.456 356.357 32.328 356.229 32.328C356.613 31.816 356.805 31.24 356.805 30.6C356.805 29.96 356.837 29.32 356.901 28.68ZM365.541 39.336C365.605 39.336 365.637 39.4 365.637 39.528C365.637 39.656 365.637 39.752 365.637 39.816C366.149 39.816 366.629 39.88 367.077 40.008C367.525 40.072 368.005 40.104 368.517 40.104C368.901 40.104 369.349 40.008 369.861 39.816H373.125C373.189 39.816 373.413 39.592 373.797 39.144C374.245 38.632 374.725 38.056 375.237 37.416C375.749 36.712 376.261 36.008 376.773 35.304C377.349 34.536 377.861 33.896 378.309 33.384L380.229 31.08C380.613 30.632 380.837 30.312 380.901 30.12C380.965 29.864 381.253 29.288 381.765 28.392L382.341 27.528L381.477 26.28C381.349 26.088 381.093 25.448 380.709 24.36C380.389 23.272 379.973 22.088 379.461 20.808C379.013 19.464 378.501 18.216 377.925 17.064C377.413 15.912 376.869 15.144 376.293 14.76H376.101C375.973 14.76 375.845 14.568 375.717 14.184C375.589 13.736 375.461 13.512 375.333 13.512C375.205 13.512 375.109 13.544 375.045 13.608C374.981 13.672 374.885 13.768 374.757 13.896C373.221 15.048 371.973 15.784 371.013 16.104C370.117 16.424 369.509 16.84 369.189 17.352C368.613 18.312 368.229 19.336 368.037 20.424C367.845 21.512 367.557 22.632 367.173 23.784C367.173 23.912 367.141 24.008 367.077 24.072C367.013 24.136 366.981 24.2 366.981 24.264L367.173 24.552L366.597 25.224C366.597 25.352 366.661 25.48 366.789 25.608V25.704C366.789 25.96 366.725 26.152 366.597 26.28C366.533 26.344 366.501 26.44 366.501 26.568C366.501 26.888 366.629 27.208 366.885 27.528C367.141 27.848 367.269 28.168 367.269 28.488L367.365 28.584L366.981 28.776C367.109 28.904 367.173 29.064 367.173 29.256V29.448L366.885 29.64L367.077 30.312C367.077 30.376 367.013 30.472 366.885 30.6C366.821 30.728 366.789 30.856 366.789 30.984L366.597 30.792C366.469 30.92 366.405 31.048 366.405 31.176C366.469 31.368 366.565 31.464 366.693 31.464L366.501 32.424L366.309 32.616V33L366.597 33.48C366.341 33.544 366.213 33.736 366.213 34.056L366.405 34.632C366.405 34.952 366.245 35.304 365.925 35.688C365.669 36.008 365.541 36.328 365.541 36.648H365.733C365.605 36.776 365.509 36.936 365.445 37.128C365.445 37.32 365.445 37.512 365.445 37.704C365.445 38.344 365.477 38.76 365.541 38.952V39.336ZM361.221 19.656L360.837 20.328C360.837 20.584 360.741 20.936 360.549 21.384C360.421 21.768 360.357 22.056 360.357 22.248V23.784H360.837L361.221 23.016C361.221 22.76 361.285 22.472 361.413 22.152C361.541 21.768 361.605 21.448 361.605 21.192V19.656H361.221ZM357.957 26.568C357.893 26.632 357.861 26.696 357.861 26.76V28.104L358.341 27.72V25.896L357.957 26.568ZM358.629 23.496C358.501 23.624 358.405 23.848 358.341 24.168C358.341 24.424 358.341 24.584 358.341 24.648V25.128L358.725 24.648L359.109 23.496H358.629ZM360.453 16.776C360.453 16.648 360.389 16.584 360.261 16.584C360.133 16.584 360.069 16.648 360.069 16.776C360.069 17.096 360.165 17.256 360.357 17.256C360.421 17.256 360.453 17.16 360.453 16.968V16.776ZM405.956 40.392C406.596 40.2 407.364 40.104 408.26 40.104C410.052 40.104 411.716 40.232 413.252 40.488C414.788 40.744 416.196 40.904 417.476 40.968L418.244 40.488L420.836 40.296C420.9 40.36 420.996 40.392 421.124 40.392C421.38 40.392 421.572 40.296 421.7 40.104C421.828 39.912 421.988 39.816 422.18 39.816C422.756 39.816 423.46 39.688 424.292 39.432C425.124 39.176 425.668 38.856 425.924 38.472C426.372 37 426.692 35.528 426.884 34.056C427.076 32.584 427.172 31.304 427.172 30.216L426.596 29.064C426.596 28.744 426.34 28.52 425.828 28.392C425.38 28.2 425.092 28.104 424.964 28.104L423.908 27.72C423.332 27.72 422.82 27.624 422.372 27.432C421.988 27.24 421.54 27.048 421.028 26.856C420.58 26.664 420.004 26.472 419.3 26.28C418.596 26.088 417.7 25.992 416.612 25.992H415.748C415.492 25.992 415.364 25.864 415.364 25.608C414.852 25.096 414.276 24.776 413.636 24.648C413.06 24.52 412.548 24.168 412.1 23.592C411.972 23.528 411.812 23.272 411.62 22.824C411.428 22.312 411.236 21.768 411.044 21.192C410.852 20.552 410.692 19.944 410.564 19.368C410.436 18.792 410.372 18.408 410.372 18.216C410.692 18.216 410.852 17.992 410.852 17.544C410.852 17.416 410.82 17.288 410.756 17.16C410.756 17.032 410.756 16.904 410.756 16.776C410.756 16.648 410.852 16.488 411.044 16.296L411.428 16.008C411.684 15.752 411.748 15.528 411.62 15.336C411.556 15.08 411.652 14.888 411.908 14.76V15.624L412.1 15.528L414.308 8.616L417.284 5.448L419.012 4.392L420.836 5.064C421.284 5.064 421.796 4.968 422.372 4.776C423.012 4.584 423.588 4.488 424.1 4.488C424.996 4.488 426.052 4.648 427.268 4.968C428.484 5.288 429.668 5.704 430.82 6.216C431.972 6.664 432.996 7.144 433.892 7.656C434.852 8.104 435.492 8.456 435.812 8.712C435.748 9.16 435.652 9.384 435.524 9.384C435.396 9.384 435.332 9.448 435.332 9.576C435.332 9.768 435.364 9.928 435.428 10.056C435.492 10.12 435.524 10.248 435.524 10.44C435.524 10.632 435.364 10.856 435.044 11.112C434.724 11.368 434.436 11.496 434.18 11.496L428.612 11.016H428.324C428.004 11.016 427.492 11.016 426.788 11.016C426.148 10.952 425.668 10.92 425.348 10.92C424.388 10.92 423.524 11.176 422.756 11.688C421.988 12.2 421.316 12.904 420.74 13.8C420.228 14.632 419.812 15.592 419.492 16.68C419.236 17.704 419.108 18.792 419.108 19.944C419.108 20.136 419.236 20.328 419.492 20.52C419.748 20.712 420.036 20.872 420.356 21C420.676 21.064 420.996 21.128 421.316 21.192C421.636 21.256 421.892 21.288 422.084 21.288L422.468 21.384C422.916 21.704 423.204 21.928 423.332 22.056C423.46 22.184 423.684 22.248 424.004 22.248H424.388L425.54 22.152L427.172 22.728C427.3 22.792 427.524 22.824 427.844 22.824H428.9C429.924 23.208 430.916 23.624 431.876 24.072C432.836 24.52 433.668 25.16 434.372 25.992C435.14 26.76 435.748 27.784 436.196 29.064C436.644 30.28 436.868 31.848 436.868 33.768C436.868 34.344 436.836 34.92 436.772 35.496C436.708 36.008 436.58 36.584 436.388 37.224L436.292 37.416C436.164 37.544 435.94 37.832 435.62 38.28C435.3 38.728 435.076 38.984 434.948 39.048L434.564 40.104L434.084 40.488L430.34 45.384C429.508 45.512 428.708 45.704 427.94 45.96C427.236 46.28 426.5 46.44 425.732 46.44C425.604 46.44 425.348 46.376 424.964 46.248C424.452 46.376 423.972 46.44 423.524 46.44C423.076 46.44 422.628 46.44 422.18 46.44C421.54 46.44 420.42 46.376 418.82 46.248C417.22 46.12 415.524 45.928 413.732 45.672C412.004 45.48 410.308 45.256 408.644 45C407.044 44.808 405.86 44.616 405.092 44.424C405.092 44.232 405.156 44.136 405.284 44.136C405.476 44.072 405.572 43.912 405.572 43.656C405.572 43.592 405.54 43.56 405.476 43.56H405.38C405.252 43.56 405.156 43.464 405.092 43.272C405.22 43.272 405.412 43.24 405.668 43.176C405.988 43.112 406.148 43.016 406.148 42.888L405.86 42.216L406.052 41.928C406.116 41.8 406.18 41.704 406.244 41.64C406.308 41.576 406.34 41.512 406.34 41.448C406.34 41.128 406.276 41 406.148 41.064C406.02 41.128 405.956 40.904 405.956 40.392ZM412.676 11.88C412.676 12.008 412.58 12.424 412.388 13.128C412.26 13.768 412.164 14.152 412.1 14.28C411.908 14.28 411.812 14.184 411.812 13.992C411.812 13.928 411.908 13.608 412.1 13.032C412.292 12.392 412.484 12.008 412.676 11.88ZM413.348 9.384C413.348 9.448 413.38 9.48 413.444 9.48H413.732L412.868 10.92C412.74 10.92 412.676 10.824 412.676 10.632C412.676 10.504 412.74 10.312 412.868 10.056C413.06 9.736 413.22 9.512 413.348 9.384ZM489.342 24.168V25.128L487.23 26.664L486.846 27.432C486.654 27.816 486.558 28.2 486.558 28.584V31.368C486.558 32.264 486.526 33.288 486.462 34.44C486.398 35.528 486.27 36.52 486.078 37.416L485.886 40.008L485.406 41.352L485.886 41.832L485.502 43.848V45.48L486.654 45V46.056L486.078 47.112L485.598 46.536L482.238 47.208L481.662 48.168H480.318L477.918 47.4L477.438 46.92L476.382 47.208L475.806 45.672V40.008L475.998 38.856C476.062 38.536 476.094 38.248 476.094 37.992C476.158 37.672 476.19 37.448 476.19 37.32C476.19 37.128 476.19 36.52 476.19 35.496C476.254 34.408 476.286 33.256 476.286 32.04C476.286 30.824 476.286 29.704 476.286 28.68C476.35 27.656 476.382 27.08 476.382 26.952C475.678 27.272 474.974 27.56 474.27 27.816C473.63 28.008 472.958 28.136 472.254 28.2L471.678 28.104C471.422 28.104 471.23 28.168 471.102 28.296C470.974 28.36 470.814 28.392 470.622 28.392C470.494 28.392 470.43 28.296 470.43 28.104C470.11 28.232 469.694 28.296 469.182 28.296C468.478 28.296 467.838 28.168 467.262 27.912C466.686 27.592 466.142 27.432 465.63 27.432C465.502 27.432 465.246 27.464 464.862 27.528C464.478 27.528 464.222 27.528 464.094 27.528C463.902 27.464 463.678 27.432 463.422 27.432C463.23 27.368 463.134 27.24 463.134 27.048L462.174 25.992L461.502 27.432L461.694 27.72L461.502 28.488L461.982 29.352C461.918 29.8 461.854 30.152 461.79 30.408C461.79 30.6 461.79 30.76 461.79 30.888C461.79 31.016 461.854 31.304 461.982 31.752C462.11 32.136 462.238 32.584 462.366 33.096C462.558 33.544 462.718 33.992 462.846 34.44C462.974 34.888 463.038 35.144 463.038 35.208V36.84L462.558 37.224V38.472L462.078 39.72C462.078 40.232 462.014 40.936 461.886 41.832C461.758 42.728 461.694 43.336 461.694 43.656L461.118 44.232C460.99 44.424 460.766 44.648 460.446 44.904C460.19 45.096 459.998 45.192 459.87 45.192L459.006 45.096L457.662 44.616L456.318 44.904L453.918 44.52L453.246 44.04L452.766 41.448V40.68L452.286 40.296L453.054 37.704V37.224L452.574 36.456L452.67 35.496L453.054 36.264C453.118 35.688 453.278 34.888 453.534 33.864C453.854 32.84 454.046 32.232 454.11 32.04L454.398 32.904V30.792L453.726 31.176L454.206 29.928L454.302 29.064L455.166 27.528V27.048L455.07 27.432V26.472C455.07 26.216 455.07 25.992 455.07 25.8C455.134 25.608 455.166 25.48 455.166 25.416L454.974 25.32V24.744H455.07C455.134 24.744 455.198 24.776 455.262 24.84C455.39 24.584 455.454 24.36 455.454 24.168V23.88L455.358 23.784C455.358 23.912 455.262 24.072 455.07 24.264V24.168C455.07 23.976 455.07 23.688 455.07 23.304C455.134 22.92 455.198 22.568 455.262 22.248C455.39 21.864 455.486 21.544 455.55 21.288C455.678 20.968 455.806 20.808 455.934 20.808L455.646 20.52L455.934 17.736C456.126 17.544 456.382 17.096 456.702 16.392C457.022 15.624 457.214 15.24 457.278 15.24C457.47 15.24 457.63 15.304 457.758 15.432C457.502 15.752 457.278 16.04 457.086 16.296C456.894 16.552 456.798 16.872 456.798 17.256C457.31 17.192 457.662 16.744 457.854 15.912C458.046 15.08 458.238 14.408 458.43 13.896H458.238C457.854 13.96 457.694 14.12 457.758 14.376C457.822 14.568 457.758 14.696 457.566 14.76L457.374 14.664C457.374 14.536 457.374 14.44 457.374 14.376C457.438 14.248 457.534 14.024 457.662 13.704L458.334 12.936C458.27 12.936 458.238 12.872 458.238 12.744C458.238 12.616 458.302 12.36 458.43 11.976C458.558 11.592 458.718 11.176 458.91 10.728C459.166 10.28 459.422 9.896 459.678 9.576C459.934 9.256 460.19 9.096 460.446 9.096L460.638 9.288L461.502 9L461.598 9.192L462.174 9.096C462.238 9.096 462.366 9.192 462.558 9.384C462.814 9.512 462.942 9.64 462.942 9.768L463.038 10.248C463.102 10.44 463.262 10.632 463.518 10.824C463.838 10.952 463.998 11.08 463.998 11.208C463.998 11.528 463.934 11.784 463.806 11.976C463.678 12.168 463.614 12.36 463.614 12.552C463.614 13 463.678 13.416 463.806 13.8C463.934 14.12 463.998 14.696 463.998 15.528C463.998 16.104 463.934 16.808 463.806 17.64C463.742 18.472 463.55 19.528 463.23 20.808L463.038 20.904V22.536L463.518 22.632C463.646 22.632 463.806 22.632 463.998 22.632C464.19 22.568 464.318 22.536 464.382 22.536L467.262 22.728L468.606 22.344C468.67 22.28 468.798 22.248 468.99 22.248C469.182 22.248 469.374 22.28 469.566 22.344C469.822 22.408 470.11 22.44 470.43 22.44C471.774 22.44 472.862 21.928 473.694 20.904C474.59 19.816 475.422 18.6 476.19 17.256L475.806 17.064C476.318 16.616 476.734 16.2 477.054 15.816C477.438 15.432 477.694 14.952 477.822 14.376L478.11 13.224L479.166 11.88L479.742 10.344C479.87 10.216 479.934 10.088 479.934 9.96C479.934 9.832 480.03 9.704 480.222 9.576L480.702 6.984V5.928L480.99 5.64C481.31 5.512 481.662 5.448 482.046 5.448C482.43 5.448 483.166 5.288 484.254 4.968L486.366 4.68L487.614 4.968C487.934 5.032 488.254 5.096 488.574 5.16C488.894 5.16 489.118 5.16 489.246 5.16L491.838 6.504L492.414 7.464L492.606 9.576L491.55 11.304L490.206 10.536L489.918 9.864L489.534 9.576C489.022 9.448 488.798 9.384 488.862 9.384H488.574L487.902 10.728C487.838 10.792 487.806 10.952 487.806 11.208C487.806 11.4 487.806 11.624 487.806 11.88C487.87 12.136 487.902 12.36 487.902 12.552C487.902 12.808 487.87 12.968 487.806 13.032L488.574 12.84L488.766 13.32L489.342 12.36L489.246 11.112L489.438 10.728L490.59 11.88L491.55 12.36V13.512C491.55 13.704 491.518 13.96 491.454 14.28C491.454 14.6 491.422 14.92 491.358 15.24L491.166 16.392L490.686 17.352C490.366 17.928 490.046 18.76 489.726 19.848C489.47 20.872 489.278 21.736 489.15 22.44L489.438 23.208L489.342 24.168ZM488.19 15.336L486.942 17.832C486.814 18.024 486.686 18.408 486.558 18.984C486.43 19.56 486.302 19.976 486.174 20.232L486.462 21L488.19 17.736V17.064C488.19 16.68 488.254 16.36 488.382 16.104L488.19 15.336ZM488.766 18.696L488.574 20.232L489.246 19.08C489.374 18.824 489.438 18.536 489.438 18.216C489.438 17.832 489.47 17.512 489.534 17.256L489.246 17.832L488.766 18.696ZM487.422 13.8C487.358 13.8 487.294 13.8 487.23 13.8C487.23 13.736 487.198 13.704 487.134 13.704C486.814 13.704 486.654 13.896 486.654 14.28C486.654 14.6 486.782 14.76 487.038 14.76C487.358 14.76 487.518 14.536 487.518 14.088C487.518 13.96 487.486 13.864 487.422 13.8ZM485.598 18.216H485.406C485.086 18.216 484.926 18.376 484.926 18.696C484.926 19.016 485.086 19.176 485.406 19.176C485.726 19.176 485.886 19.016 485.886 18.696C485.886 18.504 485.79 18.344 485.598 18.216ZM488.574 13.8H488.286C487.966 13.8 487.806 13.96 487.806 14.28C487.806 14.344 487.838 14.44 487.902 14.568C487.966 14.696 488.094 14.76 488.286 14.76C488.542 14.76 488.67 14.536 488.67 14.088C488.67 13.96 488.638 13.864 488.574 13.8ZM486.654 42.984L486.078 43.272L486.654 40.968V42.984ZM487.134 39.528L486.942 40.68L486.654 40.488L486.558 39.432L487.134 39.528ZM487.998 21.288V21.48C487.998 21.672 488.062 21.768 488.19 21.768C488.51 21.768 488.67 21.576 488.67 21.192C488.67 21 488.574 20.904 488.382 20.904C488.19 20.904 488.062 21.032 487.998 21.288ZM487.134 38.376C487.454 38.376 487.614 38.472 487.614 38.664C487.614 38.856 487.454 38.952 487.134 38.952C486.878 38.952 486.75 38.856 486.75 38.664C486.75 38.472 486.878 38.376 487.134 38.376ZM512.331 49.704C512.907 48.104 513.451 46.6 513.963 45.192C514.539 43.848 514.955 43.176 515.211 43.176C515.339 43.176 515.435 43.144 515.499 43.08C515.371 43.08 515.243 43.016 515.115 42.888C515.115 42.696 515.179 42.568 515.307 42.504C515.499 42.376 515.595 42.184 515.595 41.928V41.736L515.307 41.928C515.307 41.608 515.371 41.448 515.499 41.448C515.691 41.448 515.787 41.352 515.787 41.16H515.595C515.595 40.84 515.691 40.584 515.883 40.392C516.139 40.2 516.299 39.912 516.363 39.528L516.459 38.952L517.899 33.768L517.803 33.672C517.739 33.672 517.675 33.672 517.611 33.672C517.547 33.608 517.483 33.576 517.419 33.576H515.979C515.787 33.512 515.467 33.416 515.019 33.288C514.571 33.096 514.123 32.904 513.675 32.712C513.227 32.52 512.843 32.296 512.523 32.04C512.203 31.784 512.043 31.56 512.043 31.368C512.043 31.048 512.107 30.888 512.235 30.888C512.427 30.888 512.683 30.824 513.003 30.696C512.363 30.44 512.043 29.928 512.043 29.16H512.619C512.683 29.16 512.875 29.16 513.195 29.16C513.515 29.096 513.835 29.064 514.155 29.064C514.475 29.064 514.763 29.064 515.019 29.064C515.339 29 515.531 28.968 515.595 28.968H516.939C517.003 28.968 517.195 28.968 517.515 28.968C517.899 28.968 518.315 28.968 518.763 28.968C519.211 28.904 519.595 28.808 519.915 28.68C520.299 28.552 520.491 28.36 520.491 28.104V27.912L521.451 25.32L522.411 23.976L522.603 22.248L523.083 22.344L523.275 20.616L525.291 18.12L524.427 17.448L525.387 15.528C525.451 15.528 525.611 15.208 525.867 14.568C526.123 13.928 526.411 13.16 526.731 12.264C527.115 11.368 527.467 10.44 527.787 9.48C528.171 8.456 528.459 7.592 528.651 6.888L529.131 5.832C529.067 5.768 529.035 5.736 529.035 5.736C529.035 5.608 529.067 5.416 529.131 5.16C529.259 4.904 529.483 4.52 529.803 4.008C529.867 3.88 529.931 3.656 529.995 3.336C530.123 2.952 530.251 2.568 530.379 2.184C530.507 1.736 530.635 1.352 530.763 1.032C530.955 0.647998 531.179 0.391998 531.435 0.263998L531.915 0.551997C531.851 0.551997 531.947 0.551997 532.203 0.551997C532.459 0.487998 532.715 0.391998 532.971 0.263998C533.611 0.839998 534.187 1.256 534.699 1.512C535.211 1.704 535.659 1.864 536.043 1.992C536.491 2.12 536.875 2.28 537.195 2.472C537.515 2.664 537.771 3.016 537.963 3.528C537.963 3.656 538.059 4.04 538.251 4.68C538.507 5.32 538.635 5.768 538.635 6.024V6.12C539.723 7.016 540.619 8.136 541.323 9.48C542.091 10.824 542.475 11.976 542.475 12.936L542.379 13.512L544.107 19.944V21.384C544.491 21.384 544.683 21.48 544.683 21.672C544.555 21.8 544.491 21.96 544.491 22.152L544.299 22.536L544.491 22.728V25.224H544.683C544.683 25.352 544.651 25.48 544.587 25.608C544.523 25.736 544.491 25.864 544.491 25.992L544.875 26.376C544.811 26.632 544.779 26.984 544.779 27.432C544.779 27.88 544.811 28.296 544.875 28.68C544.939 29 545.035 29.352 545.163 29.736C544.971 29.864 544.875 30.184 544.875 30.696C544.875 30.888 544.907 31.016 544.971 31.08C545.035 31.08 545.067 31.144 545.067 31.272C545.067 31.464 545.035 31.624 544.971 31.752L545.451 31.56L545.163 31.944L545.451 32.328L545.163 33.192C545.163 33.448 545.259 33.672 545.451 33.864C545.707 34.056 545.835 34.312 545.835 34.632C545.707 34.632 545.643 34.696 545.643 34.824V34.92C545.643 35.112 545.675 35.24 545.739 35.304C545.803 35.304 545.835 35.368 545.835 35.496L545.643 35.88C545.643 36.584 545.675 37 545.739 37.128C545.803 37.256 545.995 37.576 546.315 38.088V38.472V40.872C546.443 41 546.539 41.096 546.603 41.16C546.731 41.16 546.795 41.224 546.795 41.352C546.795 41.416 546.763 41.48 546.699 41.544L546.891 41.832C546.891 42.152 546.923 42.472 546.987 42.792C547.115 43.048 547.179 43.24 547.179 43.368C547.179 43.816 547.019 44.136 546.699 44.328C546.443 44.456 546.315 44.712 546.315 45.096C546.251 45.096 546.187 45 546.123 44.808C546.123 44.616 545.995 44.52 545.739 44.52C545.739 44.84 545.707 45 545.643 45C545.643 45.064 545.515 45.096 545.259 45.096H544.779C544.651 45.096 544.523 44.968 544.395 44.712C544.331 44.456 544.235 44.328 544.107 44.328H542.475C542.219 44.328 542.091 44.296 542.091 44.232C542.091 44.104 542.027 44.04 541.899 44.04C541.643 44.04 541.451 44.136 541.323 44.328C541.195 44.456 540.971 44.52 540.651 44.52C539.499 44.264 538.923 43.528 538.923 42.312C538.923 42.184 538.955 42.088 539.019 42.024C539.147 41.896 539.211 41.8 539.211 41.736C539.211 40.904 539.115 40.2 538.923 39.624C538.731 38.984 538.635 38.28 538.635 37.512C538.827 37.512 538.955 37.576 539.019 37.704C539.083 37.768 539.179 37.864 539.307 37.992C539.179 37.992 539.115 38.152 539.115 38.472C539.115 38.728 539.339 38.92 539.787 39.048C539.787 38.92 539.755 38.856 539.691 38.856C539.691 38.856 539.691 38.824 539.691 38.76C539.691 38.696 539.691 38.664 539.691 38.664C539.755 38.6 539.787 38.536 539.787 38.472C539.723 38.28 539.691 38.056 539.691 37.8C539.691 37.48 539.659 37.16 539.595 36.84L539.403 35.688L539.211 35.4L539.115 36.264L538.923 35.784L538.539 37.032C538.539 36.84 538.507 36.584 538.443 36.264C538.443 35.88 538.443 35.496 538.443 35.112V33.576C538.379 33.448 538.155 33.352 537.771 33.288C537.451 33.16 537.067 33.096 536.619 33.096C536.235 33.032 535.851 33 535.467 33C535.083 33 534.795 33 534.603 33C534.283 33 534.027 33.032 533.835 33.096C533.643 33.16 533.387 33.192 533.067 33.192C532.683 33.192 532.267 33.16 531.819 33.096C531.371 32.968 531.051 32.904 530.859 32.904H529.899C529.515 32.904 529.227 33.064 529.035 33.384C528.907 33.704 528.811 34.088 528.747 34.536C528.683 34.92 528.651 35.304 528.651 35.688C528.651 36.072 528.619 36.328 528.555 36.456L528.171 37.224L528.747 37.416L528.555 37.704H527.595C527.595 38.152 527.435 38.696 527.115 39.336C526.795 39.976 526.507 40.488 526.251 40.872L526.059 41.16C526.059 41.224 526.027 41.288 525.963 41.352C525.963 41.416 525.963 41.48 525.963 41.544V41.736C525.963 41.928 526.059 42.12 526.251 42.312C525.931 42.632 525.643 43.08 525.387 43.656C525.131 44.168 524.939 44.68 524.811 45.192V46.056C524.555 46.76 524.235 47.496 523.851 48.264C523.467 49.096 523.275 49.8 523.275 50.376H523.851C523.723 50.568 523.563 50.664 523.371 50.664C523.179 50.664 523.083 50.792 523.083 51.048H523.179C523.307 51.048 523.371 51.176 523.371 51.432C523.371 51.816 523.243 52.104 522.987 52.296C522.795 52.552 522.571 52.776 522.315 52.968C522.123 53.224 521.899 53.512 521.643 53.832C521.451 54.152 521.355 54.6 521.355 55.176L521.643 55.368C521.643 55.56 521.451 55.944 521.067 56.52C520.683 57.096 520.427 57.544 520.299 57.864C520.299 58.056 520.107 58.184 519.723 58.248C519.723 58.44 519.787 58.536 519.915 58.536C520.043 58.536 520.171 58.568 520.299 58.632C520.171 58.888 520.043 59.08 519.915 59.208C519.787 59.336 519.723 59.528 519.723 59.784L520.299 59.592C520.299 59.848 520.235 60.008 520.107 60.072C520.043 60.136 520.011 60.264 520.011 60.456V60.552L518.955 63.144H519.243L518.859 66.024C518.667 66.28 518.571 66.472 518.571 66.6C518.571 66.792 518.507 67.048 518.379 67.368L518.475 67.464C518.475 67.592 518.315 67.688 517.995 67.752C517.739 67.816 517.451 68.008 517.131 68.328C517.003 68.328 516.843 68.232 516.651 68.04C516.523 67.848 516.459 67.688 516.459 67.56C516.459 67.496 516.491 67.432 516.555 67.368C516.235 67.176 516.075 67.048 516.075 66.984C516.075 66.92 515.947 66.888 515.691 66.888L515.403 67.272C515.275 67.656 515.211 67.816 515.211 67.752L513.099 67.464L514.923 66.888C514.795 66.824 514.411 66.76 513.771 66.696C513.195 66.696 512.811 66.696 512.619 66.696C512.491 66.824 512.427 66.92 512.427 66.984C512.427 67.048 512.331 67.08 512.139 67.08V66.408C512.075 66.472 512.011 66.504 511.947 66.504C511.819 66.504 511.595 66.44 511.275 66.312C510.955 66.248 510.667 66.216 510.411 66.216V65.736C509.963 65.736 509.611 65.832 509.355 66.024C509.035 65.704 508.747 65.288 508.491 64.776C508.299 64.328 508.139 64.04 508.011 63.912C508.459 63.656 508.683 63.336 508.683 62.952C508.747 62.568 508.779 62.12 508.779 61.608H509.067L509.547 62.568C509.675 61.736 509.867 60.84 510.123 59.88C510.443 58.92 510.603 58.088 510.603 57.384V56.328L510.891 55.176C511.147 54.664 511.339 54.28 511.467 54.024C511.595 53.768 511.723 53.416 511.851 52.968L512.139 52.584H513.195L514.731 52.104V52.584L514.155 53.64V54.696L514.827 55.272C514.827 54.952 514.987 54.568 515.307 54.12C515.691 53.736 515.883 53.416 515.883 53.16V51.624C515.883 51.432 515.787 51.272 515.595 51.144C515.467 51.08 515.339 51.048 515.211 51.048H514.731L514.155 51.624H512.619L512.331 49.704ZM531.627 27.912H532.875C533.131 27.912 533.515 27.912 534.027 27.912C534.603 27.912 535.147 27.88 535.659 27.816C536.235 27.688 536.715 27.528 537.099 27.336C537.483 27.144 537.675 26.888 537.675 26.568H537.291V25.224C537.227 25.224 537.195 25.192 537.195 25.128V24.552H537.003C537.003 24.424 537.035 24.328 537.099 24.264C537.163 24.2 537.195 24.104 537.195 23.976V23.784L536.715 23.688C536.907 23.688 537.067 23.624 537.195 23.496L537.003 22.728V22.536C537.003 22.408 537.035 22.344 537.099 22.344C537.163 22.28 537.195 22.152 537.195 21.96C537.195 21.576 537.067 21.192 536.811 20.808C536.619 20.424 536.523 20.072 536.523 19.752L536.715 19.08L535.659 16.488V16.296C535.659 16.168 535.595 15.976 535.467 15.72C535.339 15.464 535.275 15.304 535.275 15.24C534.699 16.904 534.059 18.824 533.355 21C532.651 23.112 531.947 24.968 531.243 26.568L531.051 27.72L531.627 27.912ZM513.003 57.384C513.003 57.512 512.939 57.832 512.811 58.344L512.619 58.92V61.608L513.195 61.128C513.195 60.808 513.227 60.52 513.291 60.264C513.419 60.008 513.483 59.752 513.483 59.496V56.808L513.003 57.384ZM511.659 57.576C511.531 57.896 511.403 58.216 511.275 58.536C511.147 58.856 511.083 59.176 511.083 59.496V60.936L511.659 59.496V57.576ZM539.883 42.216V42.504C539.883 42.952 540.043 43.176 540.363 43.176C540.363 43.112 540.363 43.016 540.363 42.888C540.427 42.696 540.459 42.536 540.459 42.408C540.459 42.024 540.331 41.832 540.075 41.832C539.947 41.832 539.883 41.96 539.883 42.216ZM515.211 55.752C514.955 55.752 514.827 55.944 514.827 56.328C514.827 56.648 514.955 56.808 515.211 56.808C515.531 56.808 515.691 56.648 515.691 56.328C515.691 55.944 515.531 55.752 515.211 55.752ZM514.155 55.272C513.899 55.272 513.771 55.464 513.771 55.848C513.771 56.168 513.899 56.328 514.155 56.328C514.475 56.328 514.635 56.168 514.635 55.848C514.635 55.464 514.475 55.272 514.155 55.272ZM514.923 66.216C514.923 66.152 514.635 66.12 514.059 66.12C513.547 66.12 513.259 66.12 513.195 66.12C513.131 66.12 513.099 66.152 513.099 66.216L513.195 66.408H513.867C514.123 66.408 514.347 66.408 514.539 66.408C514.795 66.408 514.923 66.344 514.923 66.216ZM511.083 62.088C511.083 61.768 510.987 61.608 510.795 61.608C510.667 61.608 510.603 61.768 510.603 62.088C510.603 62.344 510.667 62.472 510.795 62.472C510.987 62.472 511.083 62.344 511.083 62.088ZM539.787 40.2V40.488V41.064V41.256H539.979C539.979 41.128 539.979 41.032 539.979 40.968C540.043 40.904 540.075 40.808 540.075 40.68C540.075 40.488 539.979 40.328 539.787 40.2ZM518.379 66.024H518.571L518.379 65.736V66.024ZM517.323 67.656V67.464H517.131L517.323 67.656ZM579.702 34.824C579.574 34.696 579.446 34.472 579.318 34.152C579.254 33.768 579.158 33.384 579.03 33L578.166 30.408L577.782 30.024C577.782 29.768 577.718 29.384 577.59 28.872C577.462 28.296 577.302 27.72 577.11 27.144C576.982 26.568 576.822 26.056 576.63 25.608C576.502 25.16 576.406 24.872 576.342 24.744C576.278 24.68 576.15 24.296 575.958 23.592C575.766 22.888 575.574 22.12 575.382 21.288C575.19 20.392 574.998 19.592 574.806 18.888C574.678 18.12 574.582 17.672 574.518 17.544L574.23 20.808C574.102 20.936 574.038 21.064 574.038 21.192C574.038 21.256 573.974 21.384 573.846 21.576L573.942 23.496L573.366 25.032L572.982 25.512C572.982 25.704 572.95 25.992 572.886 26.376C572.822 26.696 572.79 26.984 572.79 27.24V27.432V27.816C572.79 28.072 572.758 28.36 572.694 28.68C572.63 29 572.598 29.32 572.598 29.64L572.118 30.312L571.926 31.944C571.862 32.264 571.798 32.52 571.734 32.712C571.734 32.904 571.734 33.064 571.734 33.192L571.35 35.4L570.774 35.496L570.39 35.976L570.486 36.264L570.294 36.648L571.158 36.168L571.35 36.456V37.608L571.734 37.992L571.254 39.432L571.446 40.104L571.062 40.584L570.39 40.68L570.102 41.736L569.238 42.696L569.622 43.176H568.278L567.99 41.928L567.702 41.544L566.934 42.024C566.934 42.088 566.902 42.152 566.838 42.216C566.838 42.216 566.838 42.248 566.838 42.312C566.838 42.44 566.838 42.6 566.838 42.792C566.902 42.984 566.966 43.112 567.03 43.176H566.55L564.918 42.504L563.19 42.12C562.998 41.928 562.87 41.512 562.806 40.872C562.742 40.168 562.646 39.752 562.518 39.624L562.71 38.952C562.774 38.76 562.838 38.6 562.902 38.472C562.966 38.28 562.998 38.12 562.998 37.992V37.32C562.998 37.128 563.03 37 563.094 36.936L563.478 36.168V35.784L563.958 35.016V34.152C563.958 33.96 563.99 33.608 564.054 33.096C564.182 32.52 564.278 32.136 564.342 31.944L564.726 30.696V30.6C564.726 30.344 564.758 30.024 564.822 29.64C564.95 29.256 565.046 28.968 565.11 28.776L564.918 27.624C564.918 27.432 565.046 27.208 565.302 26.952L565.686 26.568L565.398 26.088V25.704C565.462 25.64 565.558 25.512 565.686 25.32C565.878 25.064 566.07 24.808 566.262 24.552C566.454 24.232 566.614 23.976 566.742 23.784C566.87 23.528 566.934 23.336 566.934 23.208L567.03 22.824L566.454 22.92C566.71 21.384 567.03 19.944 567.414 18.6C567.798 17.256 567.99 15.656 567.99 13.8L568.854 11.88L569.142 10.824C569.142 10.568 569.206 10.152 569.334 9.576C569.526 9 569.75 8.392 570.006 7.752C570.262 7.112 570.518 6.504 570.774 5.928C571.03 5.352 571.254 4.936 571.446 4.68L573.846 4.392C574.486 4.52 575.318 5.352 576.342 6.888C577.366 8.36 578.294 10.344 579.126 12.84L579.414 12.744C579.414 14.088 579.734 15.336 580.374 16.488L580.95 17.352L581.238 19.08L581.526 19.752C581.59 20.2 581.718 20.424 581.91 20.424C582.23 21.512 582.486 22.504 582.678 23.4C582.87 24.232 583.222 25.192 583.734 26.28L583.83 25.992C584.15 25.416 584.566 24.936 585.078 24.552C585.654 24.104 585.942 23.56 585.942 22.92L586.614 21.192L586.902 20.904C587.03 20.84 587.094 20.776 587.094 20.712C587.158 20.648 587.222 20.584 587.286 20.52L588.15 18.792C588.854 17.448 589.43 16.328 589.878 15.432C590.326 14.536 590.71 13.736 591.03 13.032C591.414 12.328 591.798 11.592 592.182 10.824C592.566 10.056 593.014 9.096 593.526 7.944C593.462 7.944 593.43 7.88 593.43 7.752C593.43 7.048 593.718 6.44 594.294 5.928C594.934 5.352 595.638 5 596.406 4.872C596.47 4.872 596.534 4.904 596.598 4.968C596.662 4.968 596.758 4.968 596.886 4.968C597.206 4.968 597.398 4.872 597.462 4.68C597.59 4.424 597.75 4.296 597.942 4.296L598.23 4.104C598.294 4.04 598.326 3.976 598.326 3.912C598.326 3.784 598.358 3.688 598.422 3.624L599.19 3.72L600.726 3.528C601.238 3.848 601.878 4.2 602.646 4.584C603.414 4.968 603.798 5.352 603.798 5.736L603.51 6.12L603.798 6.792L603.606 6.984L603.414 7.848C603.414 7.976 603.446 8.168 603.51 8.424C603.574 8.616 603.638 8.84 603.702 9.096L603.99 10.056C603.99 10.248 604.086 10.76 604.278 11.592C604.534 12.424 604.694 12.936 604.758 13.128L604.374 16.104V19.752L604.566 21.576L604.086 22.536C604.022 22.728 603.99 23.016 603.99 23.4L604.086 23.688L603.894 25.128H604.758V25.8L604.182 26.184L604.278 26.568L604.758 26.376L604.566 27.048C604.502 27.176 604.47 27.24 604.47 27.24C604.47 27.368 604.534 27.464 604.662 27.528C604.79 27.592 604.886 27.688 604.95 27.816L604.374 29.448C604.374 29.512 604.31 29.8 604.182 30.312L603.894 30.888L604.662 30.6L604.758 31.08L604.47 31.656L604.566 32.04H605.046C605.174 32.04 605.27 32.072 605.334 32.136L605.526 32.52L604.95 34.344C604.822 34.472 604.726 34.728 604.662 35.112C604.662 35.496 604.662 35.784 604.662 35.976L606.006 38.184C605.878 38.504 605.718 38.76 605.526 38.952L605.142 39.432L605.814 39.336L606.006 39.816L605.622 40.68C605.686 40.68 605.782 40.712 605.91 40.776C606.102 40.84 606.262 40.872 606.39 40.872V41.256L605.622 41.736L606.102 47.4C605.974 47.528 605.878 47.688 605.814 47.88L605.622 48.168C605.558 48.168 605.366 48.232 605.046 48.36C604.79 48.552 604.47 48.712 604.086 48.84C603.766 49.032 603.446 49.192 603.126 49.32C602.87 49.512 602.742 49.608 602.742 49.608V49.8L602.358 49.896L599.094 49.512C598.902 49.704 598.742 49.768 598.614 49.704C598.486 49.64 598.422 49.736 598.422 49.992L598.23 49.608L596.982 49.032L595.926 47.496L594.966 43.464L595.926 41.544C595.734 40.648 595.606 39.624 595.542 38.472C595.478 37.32 595.446 36.2 595.446 35.112V31.176V29.928L595.638 28.584L595.254 28.488C595.254 27.592 595.286 26.728 595.35 25.896C595.414 25 595.446 24.136 595.446 23.304C595.446 22.6 595.414 21.96 595.35 21.384C595.286 20.808 595.19 20.264 595.062 19.752L592.278 24.648C591.894 25.736 591.51 26.472 591.126 26.856C590.742 27.176 590.326 27.88 589.878 28.968C589.558 29.608 589.238 30.248 588.918 30.888C588.598 31.464 588.214 32.008 587.766 32.52L586.422 34.632C586.102 34.824 585.75 35.048 585.366 35.304C584.982 35.496 584.63 35.688 584.31 35.88C583.99 36.072 583.702 36.264 583.446 36.456C583.254 36.584 583.19 36.648 583.254 36.648C582.87 36.648 582.262 36.456 581.43 36.072C580.598 35.624 580.022 35.208 579.702 34.824ZM567.99 19.368C567.862 19.752 567.734 20.168 567.606 20.616C567.542 21.064 567.478 21.48 567.414 21.864L568.086 21.672L568.278 18.792L567.99 19.368ZM571.542 30.984L571.158 31.272C571.158 31.4 571.094 31.656 570.966 32.04C570.902 32.424 570.87 32.712 570.87 32.904V33C571.318 32.744 571.542 32.264 571.542 31.56V30.984ZM604.758 22.632C605.014 22.632 605.142 22.792 605.142 23.112C605.142 23.368 605.014 23.496 604.758 23.496C604.63 23.496 604.566 23.336 604.566 23.016C604.566 22.824 604.63 22.696 604.758 22.632ZM571.158 30.216L571.062 30.6L571.734 30.12L571.446 29.832L571.158 30.216ZM605.046 24.264V24.36C605.046 24.552 604.982 24.648 604.854 24.648C604.79 24.648 604.758 24.52 604.758 24.264C604.758 24.136 604.79 24.072 604.854 24.072C604.854 24.072 604.918 24.136 605.046 24.264Z" fill="#2F390F"/>
</svg>
