<svg width="124" height="404" viewBox="0 0 124 404" fill="none" xmlns="http://www.w3.org/2000/svg">
<path d="M55 393.4C55 389.667 55.2667 386.067 55.8 382.6C56.6 379.133 57 375.533 57 371.8C57 359.267 56.7333 348.867 56.2 340.6C55.6667 332.333 55 324.467 54.2 317C53.6667 309.267 53.1333 301.267 52.6 293C52.0667 284.467 51.8 273.8 51.8 261V236.6C52.3333 235.267 52.6 233.933 52.6 232.6C52.6 231 52.6 229.667 52.6 228.6C52.6 227.533 52.6 226.6 52.6 225.8C52.6 225 52.3333 223.933 51.8 222.6C52.3333 222.6 52.7333 221.8 53 220.2C53.2667 218.333 53.4 217.133 53.4 216.6V205L52.6 204.2L54.2 203.4C54.2 198.067 54.3333 192.067 54.6 185.4C54.8667 178.467 55 172.467 55 167.4C55 164.467 54.7333 161.533 54.2 158.6C53.6667 155.667 53.4 152.333 53.4 148.6L52.6 146.2C52.6 144.333 53.9333 143.267 56.6 143C59.2667 142.733 61 142.6 61.8 142.6C71.1333 142.6 77.6667 143.533 81.4 145.4C85.1333 147.267 87 151.667 87 158.6V159.4C86.4667 159.933 86.0667 161.4 85.8 163.8C85.5333 165.933 85.4 168.333 85.4 171C85.4 173.667 85.4 176.2 85.4 178.6C85.4 181 85.4 182.6 85.4 183.4V184.2C85.4 185.8 85.5333 187.667 85.8 189.8C86.0667 191.667 86.2 193.667 86.2 195.8C86.2 198.467 86.0667 201 85.8 203.4C85.5333 205.8 85.4 208.333 85.4 211V214.2L87 215.8L86.2 216.6L87 222.6L85.4 224.2C85.4 225 85.6667 226.6 86.2 229C86.7333 231.133 87 232.867 87 234.2C87 235.533 86.4667 236.333 85.4 236.6C85.9333 236.867 86.3333 237.667 86.6 239C87.1333 240.067 87.4 241.4 87.4 243C87.6667 244.6 87.8 246.2 87.8 247.8C87.8 249.133 87.8 250.2 87.8 251L87 252.6V255H87.8C87.8 258.733 88.6 262.6 90.2 266.6C92.0667 270.6 93 274.467 93 278.2C93 279.267 92.8667 280.2 92.6 281C92.3333 281.8 92.2 282.6 92.2 283.4H93V294.2C93 295.8 92.6 297.533 91.8 299.4C91 301.267 90.6 302.867 90.6 304.2L92.2 306.6L91.4 311.8C91.4 314.733 91.6667 317.8 92.2 321C92.7333 323.933 93 326.867 93 329.8V346.6L94.6 353C94.6 357 94.6 359.8 94.6 361.4C94.8667 362.733 95.1333 363.933 95.4 365C95.6667 365.8 95.8 367 95.8 368.6C96.0667 369.933 96.2 372.6 96.2 376.6V378.2C96.2 380.333 96.0667 382.733 95.8 385.4C95.8 388.067 95.5333 390.6 95 393C94.7333 395.4 94.2 397.4 93.4 399C92.8667 400.867 92.2 401.8 91.4 401.8C90.6 401.8 89.8 401.533 89 401C88.2 400.467 87.8 399.8 87.8 399C86.7333 399 86.3333 399.267 86.6 399.8C87.1333 400.333 86.2 400.6 83.8 400.6C83.2667 400.6 83 400.333 83 399.8C82.2 401.133 80.6 402.067 78.2 402.6C75.8 403.133 73.8 403.4 72.2 403.4C70.6 403.4 68.8667 403.133 67 402.6C65.1333 402.067 63.2667 401.267 61.4 400.2C59.5333 399.4 57.9333 398.333 56.6 397C55.5333 395.933 55 394.733 55 393.4ZM80.6 282.6C80.6 283.133 80.4667 284.067 80.2 285.4C80.2 286.467 80.2 287.667 80.2 289C80.2 290.333 80.3333 291.667 80.6 293C80.8667 294.067 81.6667 294.733 83 295L83.8 293.4C83.8 292.6 83.6667 291.533 83.4 290.2C83.4 288.6 83.4 286.867 83.4 285C83.4 283.133 83.2667 281.533 83 280.2C83 278.6 83 277.4 83 276.6L82.2 275L83 272.6L82.2 271L83 268.2V264.2C83 258.333 82.6 252.6 81.8 247C81.2667 241.4 81 235.8 81 230.2C81 228.867 81 227.667 81 226.6C81 225.267 81.1333 223.933 81.4 222.6C81.4 222.067 81 221.533 80.2 221C79.6667 220.467 79.4 219.933 79.4 219.4V218.2L80.6 217.4V212.6C79.5333 212.6 78.4667 213.667 77.4 215.8C76.6 217.667 76.2 219.133 76.2 220.2C76.2 221.267 76.7333 221.8 77.8 221.8V241.8L77 241V245L77.8 243.4V251.8C77.8 253.933 78.0667 255.933 78.6 257.8C79.1333 259.4 79.4 261.267 79.4 263.4L78.6 265C78.6 267.133 79 269.4 79.8 271.8C80.8667 273.933 81.4 276.067 81.4 278.2L80.6 281.8V282.6ZM80.6 312.6V315.4C82.4667 317.267 83.8 318.2 84.6 318.2V315.8C84.6 313.667 84.4667 311.667 84.2 309.8C84.2 307.667 83.8 305.8 83 304.2C82.2 305.533 81.8 307 81.8 308.6C81.8 309.933 81.4 311.267 80.6 312.6Z" fill="#2F390F"/>
<path d="M91.9 128.7C92.3 130.7 92.9 132.5 93.7 134.1L92.5 134.4C92.3 134 91.7 133.1 90.7 131.7C89.5 130.3 88.9 129.4 88.9 129L86.5 126.3C87.1 127.9 87.9 130 88.9 132.6C89.7 135.4 90.6 138.3 91.6 141.3C92.6 144.3 93.6 147.3 94.6 150.3C95.6 153.3 96.5 156 97.3 158.4L99.7 169.2C100.7 173.2 101.5 176.9 102.1 180.3C102.5 183.7 103.2 187.4 104.2 191.4L105.4 190.8L105.7 187.5L107.8 185.4L108.4 187.2C108.6 187.4 108.7 187.7 108.7 188.1C109.5 190.9 110.1 192.6 110.5 193.2C110.9 194 111.4 195.1 112 196.5L115 202.2L111.7 205.8C110.7 205.8 109.5 205.7 108.1 205.5C106.5 205.3 105.6 205.2 105.4 205.2H103.3L97.3 201.3C94.9 200.7 93.4 199.8 92.8 198.6C92.2 197.6 91.4 196.2 90.4 194.4L88.3 188.4C87.9 187.8 87.7 186.3 87.7 183.9C87.7 181.7 87.5 180.4 87.1 180L85.3 176.4C84.5 174.8 83.6 172 82.6 168C81.4 164.2 80.4 160.2 79.6 156L78.1 153.9C77.7 153.3 77.5 152.3 77.5 150.9C77.5 149.7 77.3 148.7 76.9 147.9L73.9 142.5C72.9 142.5 71.8 144 70.6 147C69.2 150 67.9 153.4 66.7 157.2C65.3 161 64.1 164.6 63.1 168C62.1 171.6 61.4 173.8 61 174.6C60.8 175.4 60.5 175.9 60.1 176.1C59.5 176.3 59 176.8 58.6 177.6C56.4 181.6 54.8 185.7 53.8 189.9C52.6 194.3 50.9 198.5 48.7 202.5C46.9 205.9 45.3 209 43.9 211.8C42.3 214.8 40.7 218 39.1 221.4L32.5 227.4C31.9 227.4 31.5 226.8 31.3 225.6C30.9 224.6 30.4 224.1 29.8 224.1C28.4 224.3 26.5 224.6 24.1 225C21.5 225.6 19.1 225.9 16.9 225.9C15.3 225.9 13.8 225.5 12.4 224.7C10.8 223.9 9.99999 222.3 9.99999 219.9C9.99999 218.9 10.2 218 10.6 217.2C10.8 216.4 10.9 215.5 10.9 214.5C10.9 213.9 10.8 213.4 10.6 213L13.6 211.5L16.9 207C18.1 205.4 18.9 203.4 19.3 201C19.7 198.6 20.6 196.6 22 195C24.2 192.8 25.6 191.1 26.2 189.9C26.6 188.9 27.3 187.8 28.3 186.6L34 172.2C35.4 169.6 36.6 167.1 37.6 164.7C38.6 162.5 39.6 160.2 40.6 157.8C41.4 155.4 42.1 153.1 42.7 150.9C43.3 150.3 44.2 149 45.4 147C46.4 145.2 47.5 143.2 48.7 141C49.7 139 50.6 137 51.4 135C52 133.2 52.3 132 52.3 131.4C52.3 131.2 52.8 130.6 53.8 129.6C54.6 128.6 55.5 127.5 56.5 126.3C57.5 125.3 58.5 124.3 59.5 123.3C60.3 122.3 60.8 121.7 61 121.5L66.7 118.8L74.2 117.6L76 116.7L77.2 117.6C80.2 119.2 82.5 120.5 84.1 121.5C85.7 122.3 87 123 88 123.6C88.8 124.2 89.5 124.9 90.1 125.7C90.5 126.3 91 127.3 91.6 128.7H91.9ZM101.5 162.6L101.2 164.1L100 161.7L99.7 157.5L101.5 158.4V162.6ZM106.9 183L105.4 183.6L104.2 182.4L105.4 179.4L106.9 183ZM101.5 169.5L101.8 166.5H103L103.9 168.9L101.5 169.5ZM95.8 143.1L94 142.5L94.9 140.7L97.3 142.8L95.8 143.1ZM104.8 174.3L103.9 176.1L102.4 171.9L104.2 173.1L104.8 174.3ZM97.3 147H96.7C96.3 147 96.1 146.9 96.1 146.7C96.1 145.9 96.7 145.5 97.9 145.5C98.1 145.5 98.2 145.6 98.2 145.8C98.2 146.2 97.9 146.6 97.3 147ZM104.2 176.7L105.1 178.5L103.9 179.1L104.2 176.7ZM98.5 153.6L99.1 151.8L99.7 153L98.5 153.6Z" fill="#2F390F"/>
</svg>
