<svg width="634" height="634" viewBox="0 0 634 634" fill="none" xmlns="http://www.w3.org/2000/svg">
<path d="M631.005 316.506C631.193 337.276 627.265 357.878 619.446 377.121C611.628 396.365 600.075 413.868 585.455 428.622C570.834 443.376 553.436 455.087 534.264 463.079C515.092 471.071 494.527 475.186 473.756 475.186C452.985 475.186 432.42 471.071 413.248 463.079C394.076 455.087 376.678 443.376 362.057 428.622C347.437 413.868 335.884 396.365 328.066 377.121C320.248 357.878 316.319 337.276 316.508 316.506C316.319 295.736 320.248 275.134 328.066 255.891C335.884 236.647 347.437 219.143 362.057 204.39C376.678 189.636 394.076 177.925 413.248 169.933C432.42 161.941 452.985 157.826 473.756 157.826C494.527 157.826 515.092 161.941 534.264 169.933C553.436 177.925 570.834 189.636 585.455 204.39C600.075 219.143 611.628 236.647 619.446 255.891C627.265 275.134 631.193 295.736 631.005 316.506Z" stroke="white" stroke-width="4"/>
<path d="M552.379 180.291C552.567 201.061 548.639 221.663 540.821 240.906C533.003 260.15 521.45 277.654 506.829 292.407C492.209 307.161 474.81 318.872 455.638 326.864C436.467 334.856 415.901 338.971 395.13 338.971C374.359 338.971 353.794 334.856 334.622 326.864C315.451 318.872 298.052 307.161 283.432 292.407C268.811 277.654 257.258 260.15 249.44 240.906C241.622 221.663 237.694 201.061 237.882 180.291C237.694 159.521 241.622 138.919 249.44 119.676C257.258 100.432 268.811 82.9284 283.432 68.1747C298.052 53.421 315.451 41.71 334.622 33.7178C353.794 25.7257 374.359 21.6107 395.13 21.6107C415.901 21.6107 436.467 25.7257 455.638 33.7178C474.81 41.71 492.209 53.421 506.829 68.1747C521.45 82.9284 533.003 100.432 540.821 119.676C548.639 138.919 552.567 159.521 552.379 180.291Z" stroke="white" stroke-width="4"/>
<path d="M395.129 180.291C395.317 201.061 391.389 221.663 383.571 240.906C375.753 260.15 364.2 277.654 349.579 292.407C334.959 307.161 317.56 318.872 298.389 326.864C279.217 334.856 258.652 338.971 237.881 338.971C217.11 338.971 196.544 334.856 177.373 326.864C158.201 318.872 140.802 307.161 126.182 292.407C111.561 277.654 100.008 260.15 92.1903 240.906C84.3722 221.663 80.4439 201.061 80.6322 180.291C80.4439 159.521 84.3722 138.919 92.1903 119.676C100.008 100.432 111.561 82.9284 126.182 68.1747C140.802 53.421 158.201 41.71 177.373 33.7178C196.544 25.7257 217.11 21.6107 237.881 21.6107C258.652 21.6107 279.217 25.7257 298.389 33.7178C317.56 41.71 334.959 53.421 349.579 68.1747C364.2 82.9284 375.753 100.432 383.571 119.676C391.389 138.919 395.317 159.521 395.129 180.291Z" stroke="white" stroke-width="4"/>
<path d="M316.503 316.506C316.692 337.276 312.763 357.878 304.945 377.121C297.127 396.365 285.574 413.868 270.954 428.622C256.333 443.376 238.935 455.087 219.763 463.079C200.591 471.071 180.026 475.186 159.255 475.186C138.484 475.186 117.919 471.071 98.747 463.079C79.5752 455.087 62.1766 443.376 47.5561 428.622C32.9355 413.868 21.3826 396.365 13.5646 377.121C5.7465 357.878 1.81819 337.276 2.00646 316.506C1.81819 295.736 5.7465 275.134 13.5646 255.891C21.3826 236.647 32.9355 219.143 47.5561 204.39C62.1766 189.636 79.5752 177.925 98.747 169.933C117.919 161.941 138.484 157.826 159.255 157.826C180.026 157.826 200.591 161.941 219.763 169.933C238.935 177.925 256.333 189.636 270.954 204.39C285.574 219.143 297.127 236.647 304.945 255.891C312.763 275.134 316.692 295.736 316.503 316.506Z" stroke="white" stroke-width="4"/>
<path d="M395.129 452.724C395.317 473.495 391.389 494.096 383.571 513.34C375.753 532.583 364.2 550.087 349.579 564.841C334.959 579.594 317.56 591.305 298.389 599.298C279.217 607.29 258.652 611.405 237.881 611.405C217.11 611.405 196.544 607.29 177.373 599.298C158.201 591.305 140.802 579.594 126.182 564.841C111.561 550.087 100.008 532.583 92.1903 513.34C84.3722 494.096 80.4439 473.495 80.6322 452.724C80.4439 431.954 84.3722 411.353 92.1903 392.109C100.008 372.866 111.561 355.362 126.182 340.608C140.802 325.854 158.201 314.143 177.373 306.151C196.544 298.159 217.11 294.044 237.881 294.044C258.652 294.044 279.217 298.159 298.389 306.151C317.56 314.143 334.959 325.854 349.579 340.608C364.2 355.362 375.753 372.866 383.571 392.109C391.389 411.353 395.317 431.954 395.129 452.724Z" stroke="white" stroke-width="4"/>
<path d="M552.379 452.724C552.567 473.495 548.639 494.096 540.821 513.34C533.003 532.583 521.45 550.087 506.829 564.841C492.209 579.594 474.81 591.305 455.638 599.298C436.467 607.29 415.901 611.405 395.13 611.405C374.359 611.405 353.794 607.29 334.622 599.298C315.451 591.305 298.052 579.594 283.432 564.841C268.811 550.087 257.258 532.583 249.44 513.34C241.622 494.096 237.694 473.495 237.882 452.724C237.694 431.954 241.622 411.353 249.44 392.109C257.258 372.866 268.811 355.362 283.432 340.608C298.052 325.854 315.451 314.143 334.622 306.151C353.794 298.159 374.359 294.044 395.13 294.044C415.901 294.044 436.467 298.159 455.638 306.151C474.81 314.143 492.209 325.854 506.829 340.608C521.45 355.362 533.003 372.866 540.821 392.109C548.639 411.353 552.567 431.954 552.379 452.724Z" stroke="white" stroke-width="4"/>
<path d="M316.491 631.005C295.721 631.193 275.119 627.264 255.876 619.446C236.632 611.628 219.128 600.075 204.375 585.455C189.621 570.834 177.91 553.436 169.918 534.264C161.925 515.092 157.811 494.527 157.811 473.756C157.811 452.985 161.925 432.42 169.918 413.248C177.91 394.076 189.621 376.678 204.375 362.057C219.128 347.437 236.632 335.884 255.876 328.066C275.119 320.248 295.721 316.319 316.491 316.508C337.261 316.319 357.862 320.248 377.106 328.066C396.349 335.884 413.853 347.437 428.607 362.057C443.361 376.678 455.072 394.076 463.064 413.248C471.056 432.42 475.171 452.985 475.171 473.756C475.171 494.527 471.056 515.092 463.064 534.264C455.072 553.436 443.361 570.834 428.607 585.455C413.853 600.075 396.349 611.628 377.106 619.446C357.862 627.264 337.261 631.193 316.491 631.005Z" stroke="white" stroke-width="4"/>
<path d="M452.706 552.379C431.936 552.567 411.334 548.639 392.091 540.821C372.847 533.003 355.343 521.45 340.589 506.829C325.836 492.209 314.125 474.81 306.133 455.638C298.14 436.466 294.025 415.901 294.025 395.13C294.025 374.359 298.14 353.794 306.133 334.622C314.125 315.451 325.836 298.052 340.589 283.432C355.343 268.811 372.847 257.258 392.091 249.44C411.334 241.622 431.936 237.694 452.706 237.882C473.476 237.694 494.077 241.622 513.321 249.44C532.564 257.258 550.068 268.811 564.822 283.432C579.576 298.052 591.287 315.451 599.279 334.622C607.271 353.794 611.386 374.359 611.386 395.13C611.386 415.901 607.271 436.466 599.279 455.638C591.287 474.81 579.576 492.209 564.822 506.829C550.068 521.45 532.564 533.003 513.321 540.821C494.077 548.639 473.476 552.567 452.706 552.379Z" stroke="white" stroke-width="4"/>
<path d="M452.706 395.129C431.936 395.317 411.334 391.389 392.091 383.571C372.847 375.753 355.343 364.2 340.589 349.579C325.836 334.959 314.125 317.56 306.133 298.389C298.14 279.217 294.025 258.652 294.025 237.881C294.025 217.11 298.14 196.544 306.133 177.373C314.125 158.201 325.836 140.802 340.589 126.182C355.343 111.561 372.847 100.008 392.091 92.1903C411.334 84.3722 431.936 80.4439 452.706 80.6322C473.476 80.4439 494.077 84.3722 513.321 92.1903C532.564 100.008 550.068 111.561 564.822 126.182C579.576 140.802 591.287 158.201 599.279 177.373C607.271 196.544 611.386 217.11 611.386 237.881C611.386 258.652 607.271 279.217 599.279 298.389C591.287 317.56 579.576 334.959 564.822 349.579C550.068 364.2 532.564 375.753 513.321 383.571C494.077 391.389 473.476 395.317 452.706 395.129Z" stroke="white" stroke-width="4"/>
<path d="M316.491 316.503C295.721 316.692 275.119 312.763 255.876 304.945C236.632 297.127 219.128 285.574 204.375 270.954C189.621 256.333 177.91 238.935 169.918 219.763C161.925 200.591 157.811 180.026 157.811 159.255C157.811 138.484 161.925 117.919 169.918 98.747C177.91 79.5752 189.621 62.1766 204.375 47.5561C219.128 32.9355 236.632 21.3826 255.876 13.5646C275.119 5.7465 295.721 1.81819 316.491 2.00646C337.261 1.81819 357.862 5.7465 377.106 13.5646C396.349 21.3826 413.853 32.9355 428.607 47.5561C443.361 62.1766 455.072 79.5752 463.064 98.747C471.056 117.919 475.171 138.484 475.171 159.255C475.171 180.026 471.056 200.591 463.064 219.763C455.072 238.935 443.361 256.333 428.607 270.954C413.853 285.574 396.349 297.127 377.106 304.945C357.862 312.763 337.261 316.692 316.491 316.503Z" stroke="white" stroke-width="4"/>
<path d="M180.272 395.129C159.502 395.317 138.901 391.389 119.657 383.571C100.414 375.753 82.9097 364.2 68.1561 349.579C53.4024 334.959 41.6913 317.56 33.6991 298.389C25.707 279.217 21.5921 258.652 21.5921 237.881C21.5921 217.11 25.707 196.544 33.6991 177.373C41.6913 158.201 53.4024 140.802 68.1561 126.182C82.9097 111.561 100.414 100.008 119.657 92.1903C138.901 84.3722 159.502 80.4439 180.272 80.6322C201.042 80.4439 221.644 84.3722 240.887 92.1903C260.131 100.008 277.635 111.561 292.389 126.182C307.142 140.802 318.853 158.201 326.845 177.373C334.838 196.544 338.953 217.11 338.953 237.881C338.953 258.652 334.838 279.217 326.845 298.389C318.853 317.56 307.142 334.959 292.389 349.579C277.635 364.2 260.131 375.753 240.887 383.571C221.644 391.389 201.042 395.317 180.272 395.129Z" stroke="white" stroke-width="4"/>
<path d="M180.272 552.379C159.502 552.567 138.901 548.639 119.657 540.821C100.414 533.003 82.9097 521.45 68.1561 506.829C53.4024 492.209 41.6913 474.81 33.6991 455.638C25.707 436.466 21.5921 415.901 21.5921 395.13C21.5921 374.359 25.707 353.794 33.6991 334.622C41.6913 315.451 53.4024 298.052 68.1561 283.432C82.9097 268.811 100.414 257.258 119.657 249.44C138.901 241.622 159.502 237.694 180.272 237.882C201.042 237.694 221.644 241.622 240.887 249.44C260.131 257.258 277.635 268.811 292.389 283.432C307.142 298.052 318.853 315.451 326.845 334.622C334.838 353.794 338.953 374.359 338.953 395.13C338.953 415.901 334.838 436.466 326.845 455.638C318.853 474.81 307.142 492.209 292.389 506.829C277.635 521.45 260.131 533.003 240.887 540.821C221.644 548.639 201.042 552.567 180.272 552.379Z" stroke="white" stroke-width="4"/>
<path d="M473.741 316.493C473.929 337.262 470.001 357.863 462.183 377.106C454.365 396.349 442.812 413.852 428.192 428.606C413.572 443.359 396.174 455.07 377.003 463.062C357.832 471.053 337.267 475.168 316.497 475.168C295.727 475.168 275.162 471.053 255.991 463.062C236.82 455.07 219.422 443.359 204.802 428.606C190.181 413.852 178.629 396.349 170.811 377.106C162.993 357.863 159.065 337.262 159.253 316.493C159.065 295.723 162.993 275.122 170.811 255.88C178.629 236.637 190.181 219.133 204.802 204.38C219.422 189.627 236.82 177.916 255.991 169.924C275.162 161.932 295.727 157.818 316.497 157.818C337.267 157.818 357.832 161.932 377.003 169.924C396.174 177.916 413.572 189.627 428.192 204.38C442.812 219.133 454.365 236.637 462.183 255.88C470.001 275.122 473.929 295.723 473.741 316.493Z" stroke="white" stroke-width="4"/>
</svg>
