<svg width="645" height="134" viewBox="0 0 645 134" fill="none" xmlns="http://www.w3.org/2000/svg">
<path d="M151.608 103V35.8H178.968C182.104 36.952 184.888 38.968 187.32 41.848C189.752 44.728 190.968 48.216 190.968 52.312C190.968 59.544 188.6 64.6 183.864 67.48V67.864C189.752 71.128 192.696 76.248 192.696 83.224C192.696 91.224 188.632 97.816 180.504 103H151.608ZM164.664 63.544H174.168C176.984 61.816 178.392 59.192 178.392 55.672C178.392 52.152 177.08 49.368 174.456 47.32H164.664V63.544ZM164.664 91.864H174.552C175.704 91.032 176.728 89.72 177.624 87.928C178.584 86.136 179.064 84.344 179.064 82.552C179.064 80.76 178.68 79.128 177.912 77.656C177.144 76.184 176.184 75.096 175.032 74.392H164.664V91.864ZM212.854 103H199.702V35.8H212.854V62.872H228.214V35.8H241.366V103H228.214V75.16H212.854V103Z" fill="#300707"/>
<path d="M281.568 47.32V71.32H290.112C293.632 68.44 295.392 64.216 295.392 58.648C295.392 56.28 294.912 54.04 293.952 51.928C293.056 49.816 291.968 48.28 290.688 47.32H281.568ZM268.608 103V35.8H294.624C298.976 37.72 302.4 40.664 304.896 44.632C307.456 48.6 308.736 53.24 308.736 58.552C308.736 63.8 307.424 68.664 304.8 73.144C302.176 77.624 298.304 80.792 293.184 82.648H281.568V103H268.608ZM334.577 80.824H324.305C322.961 82.488 322.289 84.568 322.289 87.064C322.289 89.56 322.993 91.512 324.401 92.92H334.577V80.824ZM313.937 53.944H337.745C341.585 56.248 344.113 58.904 345.329 61.912C346.545 64.856 347.153 68.888 347.153 74.008V88.408C347.153 93.72 347.281 98.584 347.537 103H336.593L334.865 99.544C332.369 101.848 328.849 103 324.305 103H318.257C312.817 99.416 310.097 94.264 310.097 87.544C310.097 80.76 312.881 75.416 318.449 71.512H327.473C329.969 71.512 332.305 72.28 334.481 73.816V69.016C334.481 66.52 333.393 64.856 331.217 64.024H313.937V53.944ZM355.505 103V53.944H364.625L367.025 59.128C369.585 55.672 372.817 53.944 376.721 53.944H380.465V66.808H368.273V103H355.505ZM407.233 80.824H396.961C395.617 82.488 394.945 84.568 394.945 87.064C394.945 89.56 395.649 91.512 397.057 92.92H407.233V80.824ZM386.593 53.944H410.401C414.241 56.248 416.769 58.904 417.985 61.912C419.201 64.856 419.809 68.888 419.809 74.008V88.408C419.809 93.72 419.937 98.584 420.193 103H409.249L407.521 99.544C405.025 101.848 401.505 103 396.961 103H390.913C385.473 99.416 382.753 94.264 382.753 87.544C382.753 80.76 385.537 75.416 391.105 71.512H400.129C402.625 71.512 404.961 72.28 407.137 73.816V69.016C407.137 66.52 406.049 64.856 403.873 64.024H386.593V53.944Z" fill="#300707"/>
<path d="M454.456 47.32H439.96V35.8H482.008V47.32H467.512V103H454.456V47.32ZM508.593 103H487.665C481.265 97.048 478.065 88.92 478.065 78.616C478.065 73.432 478.769 68.92 480.177 65.08C481.649 61.24 483.953 57.528 487.089 53.944H509.553C512.881 57.784 515.153 61.528 516.369 65.176C517.585 68.76 518.193 73.24 518.193 78.616C518.193 88.92 514.993 97.048 508.593 103ZM494.481 92.92H501.777C504.081 88.44 505.233 83.352 505.233 77.656C505.233 71.96 504.049 67.416 501.681 64.024H494.481C492.177 67.288 491.025 71.928 491.025 77.944C491.025 83.896 492.177 88.888 494.481 92.92ZM562.218 103H552.522L550.794 99.544C549.386 100.824 548.042 101.72 546.762 102.232C545.546 102.744 543.69 103 541.194 103H532.842C530.026 100.312 527.786 96.792 526.122 92.44C524.522 88.088 523.722 83.224 523.722 77.848C523.722 72.408 524.522 67.8 526.122 64.024C527.786 60.248 530.122 56.888 533.13 53.944H541.386C544.778 53.944 547.466 54.84 549.45 56.632V35.8H562.218V103ZM549.45 64.024H540.234C537.866 68.056 536.682 73.016 536.682 78.904C536.682 84.728 537.834 89.4 540.138 92.92H549.45V64.024ZM599.625 103H578.697C572.297 97.048 569.097 88.92 569.097 78.616C569.097 73.432 569.801 68.92 571.209 65.08C572.681 61.24 574.985 57.528 578.121 53.944H600.585C603.913 57.784 606.185 61.528 607.401 65.176C608.617 68.76 609.225 73.24 609.225 78.616C609.225 88.92 606.025 97.048 599.625 103ZM585.513 92.92H592.809C595.113 88.44 596.265 83.352 596.265 77.656C596.265 71.96 595.081 67.416 592.713 64.024H585.513C583.209 67.288 582.057 71.928 582.057 77.944C582.057 83.896 583.209 88.888 585.513 92.92ZM619.397 53.944H640.613V64.024H625.637L634.757 77.56C638.853 83.384 641.125 87.384 641.573 89.56C641.829 90.584 641.957 91.64 641.957 92.728C641.957 97.272 640.261 100.696 636.869 103H612.389V92.92H629.957L619.685 77.848C619.237 77.144 618.533 76.152 617.573 74.872C616.677 73.592 615.973 72.568 615.461 71.8C614.949 70.968 614.597 70.36 614.405 69.976C614.213 69.592 613.957 69.112 613.637 68.536C613.317 67.896 613.093 67.352 612.965 66.904C612.709 65.688 612.581 64.696 612.581 63.928C612.581 59.256 614.853 55.928 619.397 53.944Z" fill="#300707"/>
<path d="M33.4583 121.667C27.5778 121.667 22.559 119.588 18.4021 115.431C14.2451 111.274 12.1667 106.256 12.1667 100.375V52.1646C9.42917 49.5285 6.71701 46.867 4.03021 44.1802C1.3434 41.4934 0 38.2236 0 34.3708C0 31.6333 0.988542 29.276 2.96563 27.299C4.94271 25.3219 7.3 24.3333 10.0375 24.3333C11.6597 24.3333 13.1552 24.6882 14.524 25.3979C15.8927 26.1076 17.1347 27.0201 18.25 28.1354C19.3653 27.0201 20.6073 26.1076 21.976 25.3979C23.3448 24.6882 24.8403 24.3333 26.4625 24.3333C29.2 24.3333 31.5573 25.3219 33.5344 27.299C35.5115 29.276 36.5 31.6333 36.5 34.3708C36.5 38.2236 35.1566 41.4934 32.4698 44.1802C29.783 46.867 27.0708 49.5285 24.3333 52.1646V100.375C24.3333 102.91 25.2205 105.064 26.9948 106.839C28.7691 108.613 30.9236 109.5 33.4583 109.5C35.9931 109.5 38.1476 108.613 39.9219 106.839C41.6962 105.064 42.5833 102.91 42.5833 100.375V30.4167C42.5833 22.0014 45.549 14.8281 51.4802 8.89688C57.4115 2.96563 64.5847 0 73 0C81.4153 0 88.5885 2.96563 94.5198 8.89688C100.451 14.8281 103.417 22.0014 103.417 30.4167V31.025C110.413 32.4444 116.217 35.917 120.83 41.4427C125.443 46.9684 127.75 53.4319 127.75 60.8333V91.25C127.75 99.6653 124.784 106.839 118.853 112.77C112.922 118.701 105.749 121.667 97.3333 121.667C88.9181 121.667 81.7448 118.701 75.8135 112.77C69.8823 106.839 66.9167 99.6653 66.9167 91.25V60.8333C66.9167 53.4319 69.2233 46.9684 73.8365 41.4427C78.4497 35.917 84.2542 32.4444 91.25 31.025V30.4167C91.25 25.3472 89.4757 21.0382 85.9271 17.4896C82.3785 13.941 78.0694 12.1667 73 12.1667C67.9306 12.1667 63.6215 13.941 60.0729 17.4896C56.5243 21.0382 54.75 25.3472 54.75 30.4167V100.375C54.75 106.256 52.6715 111.274 48.5146 115.431C44.3576 119.588 39.3389 121.667 33.4583 121.667ZM97.3333 109.5C102.403 109.5 106.712 107.726 110.26 104.177C113.809 100.628 115.583 96.3194 115.583 91.25V60.8333C115.583 55.7639 113.809 51.4549 110.26 47.9063C106.712 44.3576 102.403 42.5833 97.3333 42.5833C92.2639 42.5833 87.9549 44.3576 84.4063 47.9063C80.8576 51.4549 79.0833 55.7639 79.0833 60.8333V91.25C79.0833 96.3194 80.8576 100.628 84.4063 104.177C87.9549 107.726 92.2639 109.5 97.3333 109.5ZM97.3333 79.0833C93.9875 79.0833 91.1233 80.2747 88.7406 82.6573C86.358 85.0399 85.1667 87.9042 85.1667 91.25C85.1667 94.5958 86.358 97.4601 88.7406 99.8427C91.1233 102.225 93.9875 103.417 97.3333 103.417C100.679 103.417 103.543 102.225 105.926 99.8427C108.309 97.4601 109.5 94.5958 109.5 91.25C109.5 87.9042 108.309 85.0399 105.926 82.6573C103.543 80.2747 100.679 79.0833 97.3333 79.0833Z" fill="#B03434"/>
</svg>
