<svg width="42" height="46" viewBox="0 0 42 46" fill="none" xmlns="http://www.w3.org/2000/svg">
<path d="M41.2735 0.324219C41.086 0.117188 40.8164 0 40.5352 0H1.46487C1.18362 0 0.914089 0.117188 0.726589 0.324219C0.535182 0.53125 0.441432 0.808594 0.468776 1.08984L3.98831 40.5156C4.02346 40.9297 4.31253 41.2734 4.71097 41.3906L20.7227 45.9609C20.8086 45.9883 20.9024 46 20.9961 46C21.0899 46 21.1797 45.9883 21.2696 45.9609L37.293 41.3906C37.6914 41.2734 37.9766 40.9297 38.0157 40.5156L41.5313 1.08984C41.5586 0.808594 41.4649 0.53125 41.2735 0.324219ZM32.8477 13.918H14.0352L14.4844 19.0078H32.3946L31.0508 34.0508L20.9922 37.0898L20.8946 37.0586L10.9532 34.0469L10.4102 27.918H15.2813L15.4922 30.2969L21.0508 31.4609L26.5078 30.2969L27.0899 23.8594H10.0469L8.72268 9.05469H33.2813L32.8477 13.918Z" fill="#2F390F"/>
</svg>
