<svg width="42" height="46" viewBox="0 0 42 46" fill="none" xmlns="http://www.w3.org/2000/svg">
<path d="M41.274 0.325C41.084 0.118 40.817 0 40.536 0H1.46399C1.18299 0 0.915987 0.118 0.725987 0.325C0.535987 0.532 0.442987 0.81 0.467987 1.089L3.98799 40.516C4.02499 40.928 4.31199 41.275 4.70999 41.389L20.72 45.962C20.809 45.987 20.902 46 20.994 46C21.086 46 21.179 45.987 21.268 45.962L37.292 41.389C37.69 41.275 37.977 40.928 38.014 40.516L41.532 1.089C41.557 0.81 41.463 0.532 41.274 0.325ZM7.99999 27.004L15 28.946V9H19V35L7.99999 31.949V27.004ZM34.054 20L33 32.25L23 35V30.399L29.75 28.544L30 24.794L23 26V9H35L34.655 13H27V21L34.054 20Z" fill="#2F390F"/>
</svg>
