<svg width="45" height="45" viewBox="0 0 45 45" fill="none" xmlns="http://www.w3.org/2000/svg">
<path fill-rule="evenodd" clip-rule="evenodd" d="M40.328 12.6563V30.9375H37.5155V12.6563H31.8905C30.7716 12.6563 29.6985 12.2118 28.9073 11.4206C28.1162 10.6294 27.6717 9.55638 27.6717 8.4375V2.8125H12.203C11.457 2.8125 10.7417 3.10882 10.2142 3.63626C9.68677 4.16371 9.39045 4.87908 9.39045 5.625V30.9375H6.57795V5.625C6.57795 4.13316 7.17059 2.70242 8.22548 1.64752C9.28037 0.592632 10.7111 0 12.203 0L27.6717 0L40.328 12.6563ZM5.23077 42.6797C5.07437 42.2606 4.9962 41.8164 5.00014 41.3691H7.1517C7.15936 41.6348 7.22971 41.895 7.35702 42.1284C7.48675 42.349 7.67422 42.53 7.89923 42.652C8.12424 42.7739 8.37825 42.8321 8.63389 42.8203C9.16827 42.8203 9.56389 42.6666 9.82077 42.3591C10.0795 42.0497 10.2089 41.6128 10.2089 41.0484V33.3281H12.4308V40.9922C12.4308 42.2297 12.0961 43.1719 11.4267 43.8188C10.763 44.4656 9.84046 44.7891 8.6592 44.7891C8.1151 44.7983 7.57384 44.7087 7.0617 44.5247C6.62811 44.3642 6.236 44.1086 5.9142 43.7766C5.61171 43.4631 5.37882 43.0894 5.23077 42.6797ZM16.402 41.6841L15.5189 44.5753H13.2689L17.0433 33.3281H19.6476L23.4051 44.5753H21.0426L20.1595 41.6841H16.402ZM19.7151 40.0247L18.337 35.4797H18.2386L16.8605 40.0275L19.7151 40.0247ZM26.302 44.5753H28.9795L32.7117 33.3281H30.2423L27.7448 42.1538H27.638L25.1123 33.3281H22.5333L26.302 44.5753ZM34.9842 41.6841L34.1011 44.5753H31.8511L35.6255 33.3281H38.2298L41.9873 44.5753H39.6248L38.7417 41.6841H34.9842ZM38.2973 40.0247L36.9192 35.4797H36.8208L35.4426 40.0275L38.2973 40.0247Z" fill="#2F390F"/>
</svg>
