<svg width="45" height="45" viewBox="0 0 45 45" fill="none" xmlns="http://www.w3.org/2000/svg">
<g clip-path="url(#clip0_102_7)">
<path fill-rule="evenodd" clip-rule="evenodd" d="M39.375 12.6562V39.375C39.375 40.8668 38.7824 42.2976 37.7275 43.3525C36.6726 44.4074 35.2418 45 33.75 45V42.1875C34.4959 42.1875 35.2113 41.8912 35.7387 41.3637C36.2662 40.8363 36.5625 40.1209 36.5625 39.375V12.6562H30.9375C29.8186 12.6562 28.7456 12.2118 27.9544 11.4206C27.1632 10.6294 26.7188 9.55638 26.7188 8.4375V2.8125H11.25C10.5041 2.8125 9.78871 3.10882 9.26126 3.63626C8.73382 4.16371 8.4375 4.87908 8.4375 5.625V30.9375H5.625V5.625C5.625 4.13316 6.21763 2.70242 7.27252 1.64752C8.32742 0.592632 9.75816 0 11.25 0L26.7188 0L39.375 12.6562ZM0 41.7403C0.0161007 42.1835 0.124762 42.6183 0.318997 43.017C0.513233 43.4156 0.788743 43.7692 1.12781 44.055C1.49156 44.3587 1.93969 44.595 2.47219 44.7638C3.27094 45.0169 3.62813 45.0197 4.3425 45.0197C5.29313 45.0197 6.0975 44.8716 6.75562 44.5753C7.42125 44.2772 7.9275 43.8647 8.27437 43.3378C8.62905 42.7887 8.81215 42.1464 8.80031 41.4928C8.80031 40.8628 8.67375 40.3378 8.42062 39.9178C8.1633 39.4963 7.79955 39.15 7.36594 38.9138C6.86913 38.6377 6.33336 38.4386 5.77687 38.3231L4.03031 37.9181C3.61848 37.8401 3.22931 37.6709 2.89125 37.4231C2.76344 37.3239 2.66055 37.1962 2.59073 37.0502C2.52091 36.9042 2.4861 36.744 2.48906 36.5822C2.48906 36.1434 2.66156 35.7834 3.00656 35.5022C3.35719 35.2172 3.83813 35.0747 4.44938 35.0747C4.85063 35.0747 5.1975 35.1384 5.49 35.2659C5.75965 35.3735 5.99699 35.5489 6.17906 35.775C6.35216 35.9838 6.46841 36.2337 6.51656 36.5006H8.62594C8.59048 35.9284 8.39671 35.3773 8.06625 34.9087C7.71184 34.4029 7.22543 34.0041 6.66 33.7556C5.96973 33.4515 5.22022 33.3054 4.46625 33.3281C3.64125 33.3281 2.91375 33.4687 2.28375 33.75C1.65187 34.0294 1.15688 34.4241 0.79875 34.9341C0.4425 35.4459 0.264375 36.045 0.264375 36.7313C0.264375 37.2975 0.379687 37.7887 0.610312 38.205C0.840937 38.6212 1.17 38.9653 1.5975 39.2372C2.02688 39.5053 2.53313 39.705 3.11625 39.8362L4.85437 40.2412C5.43562 40.3781 5.86875 40.5591 6.15375 40.7841C6.29349 40.8908 6.40552 41.0295 6.48041 41.1886C6.5553 41.3477 6.59085 41.5224 6.58406 41.6981C6.58406 42.0075 6.50438 42.2794 6.345 42.5138C6.16343 42.762 5.91313 42.9517 5.625 43.0594C5.31188 43.1906 4.92469 43.2563 4.46344 43.2563C4.13344 43.2563 3.83344 43.2188 3.56344 43.1438C3.3141 43.0768 3.07816 42.9673 2.86594 42.8203C2.67893 42.6989 2.5188 42.5404 2.39544 42.3546C2.27209 42.1689 2.18813 41.9598 2.14875 41.7403H0ZM19.3444 45.9281L17.9184 43.8497C18.4134 43.3941 18.7894 42.8316 19.0462 42.1622C19.305 41.4909 19.4344 40.7353 19.4344 39.8953V38.4863C19.4344 37.4438 19.2394 36.5372 18.8494 35.7666C18.4853 35.0203 17.909 34.398 17.1928 33.9778C16.4747 33.5559 15.615 33.345 14.6138 33.345C13.6256 33.345 12.7688 33.5559 12.0431 33.9778C11.3231 34.3959 10.7681 34.9922 10.3781 35.7666C9.97633 36.6157 9.77887 37.5471 9.80156 38.4863V39.8925C9.80156 40.9313 9.99375 41.8359 10.3781 42.6066C10.7681 43.3753 11.3231 43.9716 12.0431 44.3953C12.8295 44.8276 13.7167 45.0431 14.6138 45.0197C15.1881 45.0223 15.7588 44.9272 16.3013 44.7384L17.1281 45.9253L19.3444 45.9281ZM11.9869 39.9375V38.4694C11.9869 37.7775 12.0937 37.1869 12.3075 36.6975C12.4969 36.2435 12.8146 35.8545 13.2216 35.5781C13.638 35.3162 14.1218 35.1813 14.6138 35.19C15.1538 35.19 15.6178 35.3194 16.0059 35.5781C16.4129 35.8545 16.7306 36.2435 16.92 36.6975C17.1356 37.1869 17.2434 37.7775 17.2434 38.4694V39.9375C17.2434 40.3987 17.1938 40.8159 17.0944 41.1891C16.995 41.5566 16.8497 41.8753 16.6584 42.1453L16.3603 41.7516L16.065 41.3381H14.0034L15.2719 43.1662C15.0488 43.2605 14.808 43.3055 14.5659 43.2984C14.0784 43.3002 13.6014 43.1562 13.1962 42.885C12.7919 42.6021 12.4791 42.2071 12.2963 41.7487C12.077 41.1707 11.9719 40.5556 11.9869 39.9375ZM23.1975 42.9103H27.9675V44.8059H20.9728V33.5588H23.1947L23.1975 42.9103Z" fill="#2F390F"/>
</g>
<defs>
<clipPath id="clip0_102_7">
<rect width="45" height="45" fill="white"/>
</clipPath>
</defs>
</svg>
